<?xml version="1.0" encoding="utf-8"?>
<!-- Generator: Adobe Illustrator 16.0.0, SVG Export Plug-In . SVG Version: 6.00 Build 0)  -->
<!DOCTYPE svg PUBLIC "-//W3C//DTD SVG 1.1//EN" "http://www.w3.org/Graphics/SVG/1.1/DTD/svg11.dtd">
<svg version="1.1" id="Layer_1" xmlns="http://www.w3.org/2000/svg" xmlns:xlink="http://www.w3.org/1999/xlink" x="0px" y="0px"
	 width="1080px" height="289px" viewBox="191.5 72 696.6 259.720215" enable-background="new 0 0 1080 402.667" xml:space="preserve">
<g>
	<g>
		<g>
			<g>
				<g>
					<path fill="#FFFFFF" d="M546.125,109.816c-0.196,0-0.395-0.081-0.532-0.237l-2.996-3.333l-3.197,3.349
						c-0.275,0.286-0.733,0.295-1.015,0.02c-0.293-0.271-0.302-0.722-0.023-1.01l3.734-3.907c0.136-0.142,0.32-0.221,0.519-0.221
						h0.014c0.194,0.004,0.384,0.088,0.523,0.237l3.509,3.91c0.261,0.293,0.243,0.747-0.059,1.01
						C546.466,109.755,546.295,109.816,546.125,109.816z"/>
				</g>
			</g>
			<g>
				<g>
					<path fill="#FFFFFF" d="M542.723,119.749c-0.393,0-0.708-0.316-0.715-0.71l-0.228-22.636c0-0.397,0.315-0.722,0.713-0.724
						h0.004c0.393,0,0.713,0.316,0.722,0.708l0.221,22.641c0.005,0.393-0.311,0.719-0.708,0.722H542.723z"/>
				</g>
			</g>
		</g>
		<g>
			<g>
				<g>
					<path fill="#FFFFFF" d="M571.954,134.335c-0.131,0-0.266-0.039-0.401-0.12c-0.324-0.219-0.406-0.663-0.189-0.992l2.48-3.731
						l-4.041-2.266c-0.347-0.194-0.467-0.631-0.274-0.979c0.198-0.342,0.631-0.466,0.979-0.272l4.712,2.647
						c0.172,0.099,0.298,0.264,0.341,0.458c0.057,0.194,0.012,0.399-0.097,0.563l-2.913,4.375
						C572.414,134.223,572.185,134.335,571.954,134.335z"/>
				</g>
			</g>
			<g>
				<g>
					<path fill="#FFFFFF" d="M561.492,133.512c-0.32,0-0.609-0.212-0.69-0.532c-0.104-0.383,0.122-0.773,0.51-0.875l21.862-5.847
						c0.389-0.102,0.78,0.124,0.88,0.507c0.104,0.381-0.122,0.775-0.51,0.877l-21.869,5.844
						C561.609,133.503,561.553,133.512,561.492,133.512z"/>
				</g>
			</g>
		</g>
		<g>
			<g>
				<g>
					<path fill="#FFFFFF" d="M561.186,166.942c-0.055,0-0.117-0.005-0.176-0.018l-5.092-1.283c-0.379-0.099-0.618-0.489-0.523-0.868
						c0.095-0.385,0.487-0.618,0.871-0.521l4.352,1.093l0.782-4.566c0.065-0.388,0.436-0.652,0.827-0.582
						c0.389,0.065,0.649,0.435,0.582,0.825l-0.915,5.328c-0.036,0.196-0.146,0.367-0.316,0.478
						C561.46,166.904,561.327,166.942,561.186,166.942z"/>
				</g>
			</g>
			<g>
				<g>
					<path fill="#FFFFFF" d="M566.195,174.185c-0.234,0-0.46-0.113-0.598-0.311l-12.818-18.661c-0.221-0.325-0.14-0.771,0.191-0.997
						c0.322-0.223,0.765-0.14,0.985,0.185l12.825,18.661c0.23,0.327,0.141,0.773-0.185,0.997
						C566.475,174.142,566.331,174.185,566.195,174.185z"/>
				</g>
			</g>
		</g>
		<g>
			<g>
				<g>
					<path fill="#FFFFFF" d="M522.188,166.942c-0.138,0-0.273-0.039-0.391-0.113c-0.167-0.111-0.279-0.282-0.315-0.478l-0.916-5.328
						c-0.07-0.39,0.189-0.76,0.584-0.825c0.395-0.07,0.76,0.194,0.828,0.582l0.78,4.566l4.352-1.093
						c0.379-0.097,0.771,0.135,0.866,0.521c0.097,0.379-0.136,0.769-0.519,0.868l-5.091,1.283
						C522.303,166.938,522.245,166.942,522.188,166.942z"/>
				</g>
			</g>
			<g>
				<g>
					<path fill="#FFFFFF" d="M517.183,174.185c-0.142,0-0.282-0.043-0.404-0.126c-0.325-0.224-0.41-0.67-0.18-0.997l12.816-18.661
						c0.221-0.325,0.669-0.406,0.992-0.185c0.329,0.226,0.41,0.672,0.185,0.997l-12.821,18.661
						C517.636,174.072,517.415,174.185,517.183,174.185z"/>
				</g>
			</g>
		</g>
		<g>
			<g>
				<g>
					<path fill="#FFFFFF" d="M512.923,133.907c-0.239,0-0.46-0.115-0.6-0.325l-2.868-4.399c-0.108-0.167-0.144-0.375-0.095-0.564
						c0.045-0.194,0.169-0.36,0.343-0.455l4.744-2.602c0.343-0.192,0.78-0.068,0.974,0.279c0.189,0.347,0.059,0.785-0.289,0.974
						l-4.059,2.232l2.449,3.752c0.212,0.333,0.122,0.776-0.208,0.99C513.194,133.871,513.059,133.907,512.923,133.907z"/>
				</g>
			</g>
			<g>
				<g>
					<path fill="#FFFFFF" d="M523.399,133.179c-0.063,0-0.13-0.009-0.194-0.027l-21.817-6.042c-0.375-0.106-0.604-0.501-0.505-0.882
						c0.113-0.381,0.505-0.606,0.897-0.499l21.813,6.043c0.375,0.106,0.604,0.5,0.492,0.882
						C523.997,132.971,523.706,133.179,523.399,133.179z"/>
				</g>
			</g>
		</g>
	</g>
	<g>
		<g>
			<g>
				<path fill="#FFFFFF" d="M519.079,108.777c-0.235,0-0.46-0.115-0.6-0.325c-0.144-0.216-3.54-5.405-5.357-11.991
					c-2.44-8.875-0.744-15.951,4.911-20.458c5.794-4.62,12.203-3.488,17.867-2.489c2.063,0.365,4.009,0.706,5.732,0.719
					c0.029,0.004,0.067,0.004,0.099,0.004c1.781,0,3.781-0.365,5.89-0.749c6.546-1.193,14.684-2.674,21.764,6.146
					c3.107,3.865,3.499,9.89,1.179,17.908c-1.702,5.869-4.231,10.562-4.34,10.76c-0.189,0.347-0.625,0.478-0.97,0.289
					c-0.35-0.189-0.478-0.625-0.284-0.974c0.095-0.185,10.027-18.702,3.301-27.089c-6.539-8.153-13.898-6.814-20.393-5.633
					c-2.219,0.406-4.329,0.79-6.257,0.771c-1.838-0.016-3.844-0.37-5.968-0.742c-5.362-0.949-11.441-2.02-16.726,2.199
					c-12.568,10.022,0.615,30.336,0.753,30.539c0.212,0.334,0.122,0.776-0.212,0.995
					C519.345,108.736,519.214,108.777,519.079,108.777z"/>
			</g>
		</g>
		<g>
			<g>
				<path fill="#FFFFFF" d="M525.433,83.541c-0.229,0-0.451-0.104-0.59-0.302c-0.226-0.325-0.145-0.769,0.171-0.997
					c0.198-0.14,4.843-3.359,11.116-1.398c5.475,1.718,9.673,0.753,13.741-0.173l0.73-0.165c4.469-1.015,8.505,0.78,8.676,0.856
					c0.361,0.163,0.523,0.586,0.354,0.947c-0.16,0.358-0.584,0.516-0.945,0.356c-0.031-0.018-3.788-1.669-7.778-0.767l-0.713,0.167
					c-4.055,0.927-8.649,1.975-14.494,0.146c-5.569-1.748-9.817,1.17-9.862,1.197C525.717,83.499,525.573,83.541,525.433,83.541z"/>
			</g>
		</g>
	</g>
	<g>
		<g>
			<g>
				<path fill="#FFFFFF" d="M497.59,154.216c-2.002,0-4.239-0.104-6.552-0.396c-10.016-1.27-16.474-5.579-18.67-12.46
					c-2.25-7.06,1.098-12.649,4.045-17.581c1.073-1.797,2.093-3.493,2.72-5.098c0.653-1.682,1.035-3.716,1.434-5.865
					c1.222-6.537,2.742-14.677,13.502-18.14c4.717-1.52,10.485,0.257,17.155,5.281c4.875,3.68,8.356,7.725,8.503,7.892
					c0.254,0.302,0.219,0.753-0.082,1.01c-0.3,0.257-0.75,0.221-1.012-0.077c-0.131-0.163-13.899-16.043-24.126-12.745
					c-9.948,3.202-11.319,10.555-12.53,17.04c-0.417,2.221-0.805,4.318-1.513,6.124c-0.667,1.713-1.714,3.463-2.818,5.31
					c-2.796,4.674-5.971,9.966-3.915,16.413c4.904,15.371,31.238,11.385,31.5,11.344c0.397-0.065,0.762,0.203,0.821,0.593
					c0.063,0.39-0.203,0.758-0.591,0.818C505.259,153.708,502.021,154.216,497.59,154.216z"/>
			</g>
		</g>
		<g>
			<g>
				<path fill="#FFFFFF" d="M481.387,137.596c-0.329,0-0.618-0.214-0.694-0.539c-0.068-0.23-1.42-5.729,2.647-10.877
					c3.561-4.505,4.158-8.776,4.744-12.904l0.1-0.735c0.647-4.543,3.761-7.678,3.892-7.809c0.289-0.28,0.739-0.275,1.017,0.004
					c0.277,0.282,0.275,0.73,0,1.01c-0.031,0.029-2.913,2.94-3.492,6.995l-0.104,0.732c-0.582,4.12-1.231,8.785-5.028,13.59
					c-3.612,4.577-2.408,9.59-2.395,9.637c0.097,0.386-0.135,0.775-0.516,0.87C481.496,137.589,481.441,137.596,481.387,137.596z"/>
			</g>
		</g>
	</g>
	<g>
		<g>
			<g>
				<path fill="#FFFFFF" d="M591.066,153.422c-5.069,0-9.016-0.866-9.223-0.916c-0.39-0.081-0.622-0.464-0.541-0.852
					c0.086-0.386,0.469-0.627,0.853-0.542c0.248,0.054,23.919,5.132,28.803-10.189c2.052-6.446-1.114-11.738-3.905-16.413
					c-1.114-1.847-2.156-3.597-2.828-5.31c-0.703-1.806-1.096-3.903-1.51-6.124c-1.205-6.485-2.58-13.838-12.528-17.04
					c-10.236-3.296-23.991,12.582-24.129,12.745c-0.264,0.297-0.71,0.333-1.013,0.077c-0.302-0.257-0.336-0.708-0.076-1.01
					c0.145-0.167,3.626-4.212,8.505-7.892c6.661-5.023,12.434-6.8,17.155-5.281c10.755,3.463,12.275,11.604,13.492,18.14
					c0.397,2.149,0.785,4.183,1.438,5.865c0.627,1.605,1.646,3.301,2.725,5.098c2.949,4.931,6.286,10.521,4.04,17.581
					c-2.203,6.891-8.203,10.999-17.364,11.881C593.618,153.368,592.311,153.422,591.066,153.422z"/>
			</g>
		</g>
		<g>
			<g>
				<path fill="#FFFFFF" d="M603.312,137.596c-0.061,0-0.124-0.007-0.178-0.022c-0.384-0.097-0.618-0.489-0.517-0.873
					c0.021-0.081,1.207-5.073-2.396-9.637c-3.788-4.805-4.444-9.47-5.023-13.59l-0.1-0.732c-0.591-4.072-3.464-6.963-3.49-6.995
					c-0.289-0.28-0.289-0.729-0.01-1.01c0.275-0.279,0.735-0.284,1.013-0.004c0.133,0.131,3.249,3.265,3.898,7.809l0.108,0.735
					c0.577,4.128,1.177,8.399,4.729,12.904c4.07,5.148,2.717,10.647,2.663,10.877C603.928,137.381,603.63,137.596,603.312,137.596z"
					/>
			</g>
		</g>
	</g>
	<g>
		<g>
			<g>
				<path fill="#FFFFFF" d="M563.31,205.129c-1.719,0-3.599-0.255-5.669-0.834c-4.775-1.335-8.609-6.002-11.392-13.872
					c-2.038-5.761-2.71-11.053-2.737-11.274c-0.049-0.393,0.23-0.751,0.627-0.798c0.384-0.052,0.744,0.226,0.796,0.623
					c0.021,0.207,2.739,21.044,13.089,23.943c10.066,2.816,15.268-2.554,19.856-7.294c1.571-1.624,3.058-3.157,4.641-4.275
					c1.497-1.06,3.342-1.939,5.283-2.873c4.908-2.354,10.474-5.017,12.313-11.526c4.388-15.486-18.165-24.305-18.391-24.393
					c-0.374-0.142-0.555-0.557-0.41-0.925c0.135-0.37,0.545-0.555,0.92-0.413c0.239,0.093,6.024,2.332,11.335,6.631
					c7.154,5.788,9.892,12.53,7.926,19.489c-2.021,7.129-7.892,9.946-13.069,12.426c-1.89,0.906-3.675,1.763-5.082,2.753
					c-1.479,1.04-2.913,2.525-4.442,4.099C575.156,200.489,570.669,205.129,563.31,205.129z"/>
			</g>
		</g>
		<g>
			<g>
				<path fill="#FFFFFF" d="M564.707,197.021c-0.336,0-0.636-0.239-0.708-0.577c-0.072-0.388,0.181-0.767,0.568-0.843
					c0.038-0.007,4.05-0.843,6.773-3.908l0.487-0.553c2.755-3.111,5.871-6.645,11.693-8.562c5.538-1.822,7.292-6.665,7.311-6.717
					c0.135-0.37,0.541-0.564,0.915-0.438c0.374,0.131,0.568,0.537,0.438,0.911c-0.074,0.225-1.984,5.553-8.222,7.603
					c-5.447,1.799-8.307,5.028-11.066,8.149l-0.486,0.555c-3.054,3.432-7.385,4.325-7.563,4.363
					C564.797,197.017,564.75,197.021,564.707,197.021z"/>
			</g>
		</g>
	</g>
	<g>
		<g>
			<g>
				<path fill="#FFFFFF" d="M525.333,205.498c-6.981,0-11.486-4.318-15.256-7.939c-1.583-1.513-3.076-2.947-4.591-3.93
					c-1.438-0.936-3.256-1.725-5.177-2.562c-5.271-2.291-11.242-4.886-13.522-11.935c-2.23-6.882,0.255-13.718,7.186-19.771
					c5.154-4.496,10.854-6.945,11.092-7.048c0.363-0.153,0.782,0.016,0.936,0.379c0.158,0.365-0.009,0.785-0.375,0.94
					c-0.23,0.097-22.44,9.757-17.479,25.058c2.079,6.435,7.738,8.895,12.73,11.062c1.975,0.861,3.851,1.673,5.398,2.674
					c1.619,1.06,3.157,2.537,4.785,4.099c4.767,4.566,10.16,9.746,20.113,6.552c10.241-3.281,12.176-24.203,12.198-24.415
					c0.031-0.392,0.379-0.686,0.775-0.649c0.388,0.032,0.686,0.381,0.649,0.773c-0.076,0.9-2.043,22.086-13.181,25.655
					C529.311,205.177,527.232,205.498,525.333,205.498z"/>
			</g>
		</g>
		<g>
			<g>
				<path fill="#FFFFFF" d="M524.256,197.434c-0.045,0-0.077-0.002-0.113-0.009c-0.187-0.029-4.55-0.764-7.72-4.081l-0.51-0.534
					c-2.877-3.02-5.854-6.142-11.364-7.732c-6.309-1.82-8.413-7.073-8.501-7.296c-0.135-0.368,0.041-0.783,0.411-0.927
					c0.37-0.142,0.785,0.041,0.929,0.408c0.024,0.061,1.961,4.825,7.554,6.442c5.885,1.695,9.141,5.109,12.004,8.117l0.512,0.532
					c2.848,2.974,6.866,3.65,6.911,3.657c0.388,0.063,0.654,0.428,0.588,0.818C524.905,197.179,524.594,197.434,524.256,197.434z"/>
			</g>
		</g>
	</g>
	<g>
		<g>
			<g>
				<path fill="#FFFFFF" d="M518.691,108.43c-0.226,0-0.442-0.104-0.586-0.297l-16.239-22.607c-0.23-0.32-0.158-0.769,0.167-0.997
					c0.32-0.232,0.762-0.158,0.995,0.16l16.241,22.606c0.232,0.323,0.158,0.769-0.167,1.001
					C518.975,108.385,518.837,108.43,518.691,108.43z"/>
			</g>
		</g>
		<g>
			<g>
				<path fill="#FFFFFF" d="M497.189,94.585h-0.036c-0.395-0.021-0.694-0.356-0.676-0.753l0.785-15.561
					c0.014-0.23,0.126-0.439,0.32-0.566c0.198-0.126,0.433-0.149,0.654-0.067l15.08,5.887c0.361,0.144,0.541,0.559,0.401,0.927
					c-0.14,0.37-0.555,0.555-0.929,0.406l-14.149-5.524l-0.735,14.575C497.888,94.288,497.572,94.585,497.189,94.585z"/>
			</g>
		</g>
	</g>
	<g>
		<g>
			<g>
				<path fill="#FFFFFF" d="M565.51,108.43c-0.142,0-0.293-0.045-0.419-0.133c-0.315-0.232-0.388-0.679-0.163-1.001l16.244-22.606
					c0.23-0.318,0.677-0.393,1.001-0.16c0.318,0.228,0.388,0.676,0.162,0.997l-16.248,22.607
					C565.952,108.326,565.735,108.43,565.51,108.43z"/>
			</g>
		</g>
		<g>
			<g>
				<path fill="#FFFFFF" d="M587.008,94.585c-0.375,0-0.699-0.298-0.711-0.677l-0.737-14.575l-14.151,5.524
					c-0.369,0.149-0.784-0.036-0.927-0.406c-0.144-0.368,0.041-0.783,0.408-0.927l15.076-5.887c0.212-0.082,0.455-0.059,0.645,0.067
					c0.196,0.126,0.32,0.336,0.329,0.566l0.785,15.561c0.018,0.397-0.284,0.733-0.677,0.753
					C587.032,94.585,587.021,94.585,587.008,94.585z"/>
			</g>
		</g>
	</g>
	<g>
		<g>
			<g>
				<path fill="#FFFFFF" d="M607.945,161.136c-0.076,0-0.145-0.011-0.226-0.036l-26.422-8.733c-0.374-0.126-0.581-0.532-0.457-0.907
					c0.119-0.374,0.525-0.579,0.899-0.455l26.426,8.735c0.382,0.126,0.582,0.53,0.465,0.904
					C608.531,160.944,608.248,161.136,607.945,161.136z"/>
			</g>
		</g>
		<g>
			<g>
				<path fill="#FFFFFF" d="M601.163,168.773c-0.293,0-0.568-0.178-0.672-0.469c-0.138-0.37,0.047-0.78,0.419-0.918l13.688-5.058
					l-9.507-11.851c-0.248-0.307-0.198-0.76,0.106-1.006c0.309-0.248,0.76-0.198,1.008,0.108l10.133,12.627
					c0.14,0.181,0.185,0.419,0.126,0.638c-0.062,0.223-0.226,0.404-0.441,0.48l-14.611,5.402
					C601.321,168.76,601.24,168.773,601.163,168.773z"/>
			</g>
		</g>
	</g>
	<g>
		<g>
			<g>
				<path fill="#FFFFFF" d="M544.062,207.276h-0.005c-0.396-0.002-0.713-0.324-0.708-0.719l0.153-26.873
					c0.009-0.395,0.329-0.71,0.722-0.71h0.004c0.393,0,0.711,0.322,0.709,0.717l-0.154,26.873
					C544.783,206.957,544.459,207.276,544.062,207.276z"/>
			</g>
		</g>
		<g>
			<g>
				<path fill="#FFFFFF" d="M544.18,215.417c-0.226,0-0.438-0.108-0.573-0.287l-9.384-12.439c-0.239-0.315-0.174-0.765,0.149-1.001
					c0.315-0.241,0.757-0.176,0.992,0.14l8.789,11.646l8.609-12.517c0.225-0.325,0.672-0.406,0.991-0.183
					c0.329,0.223,0.413,0.67,0.189,0.994l-9.177,13.335c-0.126,0.189-0.338,0.307-0.572,0.312
					C544.193,215.417,544.188,215.417,544.18,215.417z"/>
			</g>
		</g>
	</g>
	<g>
		<g>
			<g>
				<path fill="#FFFFFF" d="M480.427,162.514c-0.289,0-0.559-0.176-0.667-0.46c-0.144-0.37,0.041-0.782,0.415-0.922l21.705-8.304
					c0.365-0.145,0.78,0.041,0.925,0.41c0.14,0.368-0.047,0.785-0.415,0.925l-21.709,8.304
					C480.598,162.498,480.513,162.514,480.427,162.514z"/>
			</g>
		</g>
		<g>
			<g>
				<path fill="#FFFFFF" d="M487.214,170.151c-0.077,0-0.167-0.014-0.244-0.045l-14.618-5.4c-0.219-0.082-0.386-0.259-0.444-0.48
					c-0.059-0.223-0.009-0.46,0.135-0.64l10.124-12.625c0.252-0.311,0.697-0.358,1.01-0.113c0.307,0.248,0.356,0.699,0.108,1.01
					l-9.502,11.849l13.682,5.058c0.365,0.135,0.559,0.545,0.419,0.92C487.777,169.973,487.507,170.151,487.214,170.151z"/>
			</g>
		</g>
	</g>
	<g>
		<g>
			<path fill="#FFFFFF" d="M541.649,150.595c-6.214,0-11.261-5.053-11.261-11.263c0-6.212,5.046-11.263,11.261-11.263
				c6.21,0,11.265,5.051,11.265,11.263C552.914,145.542,547.859,150.595,541.649,150.595z M541.649,129.499
				c-5.42,0-9.831,4.411-9.831,9.833c0,5.42,4.411,9.829,9.831,9.829c5.421,0,9.836-4.408,9.836-9.829
				C551.485,133.909,547.07,129.499,541.649,129.499z"/>
		</g>
	</g>
	<g>
		<g>
			<path fill="#FFFFFF" d="M547.449,131.237c-0.153,0-0.316-0.05-0.438-0.153c-0.313-0.246-0.365-0.697-0.12-1.008l6.23-7.847
				c0.243-0.309,0.696-0.36,1.01-0.112c0.303,0.243,0.356,0.694,0.108,1.005l-6.223,7.847
				C547.868,131.145,547.661,131.237,547.449,131.237z"/>
		</g>
	</g>
	<g>
		<g>
			<path fill="#FFFFFF" d="M541.73,160.611c-0.388,0-0.699-0.307-0.712-0.697l-0.307-10.014c-0.013-0.393,0.297-0.724,0.69-0.74
				c0.393-0.004,0.727,0.302,0.744,0.697l0.298,10.014c0.014,0.397-0.298,0.726-0.694,0.74H541.73z"/>
		</g>
	</g>
	<g>
		<g>
			<path fill="#FFFFFF" d="M561.492,145.727c-0.059,0-0.124-0.009-0.181-0.025l-9.691-2.543c-0.379-0.104-0.613-0.494-0.514-0.875
				c0.105-0.383,0.491-0.613,0.875-0.512l9.693,2.546c0.383,0.099,0.61,0.492,0.507,0.875
				C562.101,145.512,561.812,145.727,561.492,145.727z"/>
		</g>
	</g>
	<g>
		<g>
			<path fill="#FFFFFF" d="M522.164,146.739c-0.311,0-0.591-0.194-0.686-0.501c-0.117-0.378,0.095-0.778,0.469-0.895l9.565-2.997
				c0.375-0.113,0.776,0.095,0.897,0.471c0.117,0.379-0.095,0.778-0.469,0.895l-9.569,2.995
				C522.301,146.73,522.231,146.739,522.164,146.739z"/>
		</g>
	</g>
	<g>
		<g>
			<path fill="#FFFFFF" d="M535.647,131.127c-0.212,0-0.411-0.086-0.55-0.248l-6.507-7.626c-0.253-0.302-0.212-0.755,0.085-1.012
				c0.302-0.255,0.753-0.219,1.01,0.081l6.503,7.624c0.252,0.302,0.216,0.755-0.09,1.01
				C535.97,131.073,535.801,131.127,535.647,131.127z"/>
		</g>
	</g>
	<g>
		<g>
			<g>
				<path fill="#FFFFFF" d="M548.087,172.221c-1.349,0-2.649-0.237-3.835-0.453c-1.042-0.189-2.007-0.365-2.873-0.361
					c-0.807,0.009-1.752,0.171-2.746,0.347c-2.697,0.478-6.061,1.071-9.028-1.292c-2.891-2.307-3.766-5.898-2.521-10.395
					c0.893-3.279,2.597-5.865,2.661-5.971c0.219-0.332,0.663-0.419,0.992-0.203c0.333,0.219,0.424,0.661,0.203,0.99
					c-0.063,0.099-6.329,9.764-0.442,14.458c2.458,1.962,5.222,1.475,7.888,1.001c1.055-0.185,2.052-0.361,2.989-0.365
					c0.983-0.016,2.025,0.181,3.126,0.383c3.229,0.584,6.565,1.193,9.632-2.629c3.135-3.912-1.605-12.762-1.657-12.853
					c-0.183-0.347-0.061-0.78,0.287-0.97c0.347-0.189,0.784-0.063,0.969,0.287c0.217,0.397,5.247,9.779,1.516,14.433
					C552.946,171.488,550.447,172.221,548.087,172.221z"/>
			</g>
		</g>
		<g>
			<g>
				<path fill="#FFFFFF" d="M547.156,168.489c-0.474,0-0.966-0.045-1.471-0.162l-0.356-0.077c-1.943-0.446-3.95-0.906-6.534-0.095
					c-3.229,1.015-5.65-0.663-5.752-0.735c-0.322-0.228-0.408-0.672-0.174-0.997c0.226-0.32,0.672-0.397,0.992-0.171
					c0.095,0.059,1.975,1.33,4.5,0.537c2.963-0.927,5.253-0.399,7.288,0.063l0.352,0.081c1.836,0.415,3.562-0.345,3.576-0.352
					c0.356-0.16,0.78,0,0.942,0.361c0.163,0.36,0,0.78-0.354,0.944C550.096,167.918,548.811,168.489,547.156,168.489z"/>
			</g>
		</g>
	</g>
	<g>
		<g>
			<g>
				<path fill="#FFFFFF" d="M519.76,161.657c-0.6,0-1.188-0.081-1.768-0.271c-5.475-1.761-6.235-5.86-6.848-9.157
					c-0.196-1.035-0.381-2.014-0.688-2.803c-0.298-0.758-0.785-1.574-1.303-2.439c-1.416-2.356-3.162-5.29-2.014-8.9
					c1.116-3.515,4.386-5.711,9.437-6.352c3.698-0.464,7.017,0.05,7.161,0.07c0.388,0.063,0.654,0.431,0.595,0.818
					c-0.063,0.39-0.424,0.658-0.821,0.598c-0.126-0.021-12.708-1.917-15.008,5.301c-0.952,2.995,0.484,5.4,1.88,7.729
					c0.55,0.92,1.066,1.786,1.412,2.654c0.356,0.916,0.545,1.959,0.753,3.062c0.6,3.222,1.227,6.557,5.881,8.059
					c2.444,0.785,5.389-0.882,7.427-2.424c2.297-1.729,3.977-3.684,3.996-3.702c0.257-0.302,0.708-0.334,1.01-0.077
					c0.298,0.255,0.334,0.708,0.077,1.008C530.673,155.141,525.022,161.657,519.76,161.657z"/>
			</g>
		</g>
		<g>
			<g>
				<path fill="#FFFFFF" d="M517.383,156.586c-0.185,0-0.37-0.07-0.507-0.21c-0.072-0.063-1.68-1.684-2.009-4.027l-0.059-0.358
					c-0.273-1.973-0.559-4.016-2.234-6.142c-2.099-2.659-1.4-5.52-1.374-5.64c0.108-0.383,0.492-0.613,0.875-0.514
					c0.384,0.097,0.609,0.485,0.514,0.866c-0.02,0.099-0.541,2.318,1.105,4.401c1.921,2.431,2.246,4.767,2.534,6.828l0.059,0.356
					c0.262,1.874,1.583,3.2,1.594,3.215c0.277,0.275,0.287,0.73,0.007,1.01C517.753,156.516,517.568,156.586,517.383,156.586z"/>
			</g>
		</g>
	</g>
	<g>
		<g>
			<g>
				<path fill="#FFFFFF" d="M563.697,161.657c-5.261,0-10.918-6.516-11.171-6.825c-0.266-0.3-0.226-0.753,0.072-1.008
					c0.298-0.257,0.753-0.223,1.011,0.077c0.062,0.074,6.643,7.662,11.416,6.126c4.665-1.502,5.287-4.837,5.885-8.059
					c0.21-1.103,0.403-2.146,0.76-3.062c0.343-0.868,0.857-1.734,1.402-2.654c1.398-2.329,2.844-4.735,1.883-7.729
					c-2.288-7.179-13.556-4.767-13.666-4.742c-0.391,0.083-0.767-0.16-0.857-0.543c-0.081-0.388,0.16-0.769,0.546-0.853
					c0.131-0.031,3.147-0.69,6.53-0.367c4.641,0.449,7.688,2.545,8.812,6.07c1.154,3.61-0.604,6.543-2.011,8.9
					c-0.523,0.866-1.011,1.682-1.309,2.439c-0.307,0.789-0.486,1.768-0.681,2.803c-0.613,3.296-1.38,7.396-6.85,9.157
					C564.888,161.576,564.297,161.657,563.697,161.657z"/>
			</g>
		</g>
		<g>
			<g>
				<path fill="#FFFFFF" d="M566.083,156.586c-0.189,0-0.372-0.07-0.515-0.214c-0.277-0.28-0.271-0.735,0.005-1.01
					c0.014-0.013,1.339-1.359,1.605-3.215l0.05-0.356c0.29-2.061,0.622-4.397,2.534-6.828c1.668-2.108,1.113-4.375,1.106-4.395
					c-0.097-0.386,0.129-0.776,0.517-0.873c0.379-0.099,0.767,0.131,0.868,0.514c0.036,0.12,0.735,2.981-1.368,5.64
					c-1.678,2.126-1.962,4.169-2.237,6.14l-0.054,0.361c-0.334,2.343-1.944,3.964-2.012,4.027
					C566.443,156.516,566.259,156.586,566.083,156.586z"/>
			</g>
		</g>
	</g>
	<g>
		<g>
			<g>
				<path fill="#FFFFFF" d="M561.122,133.76c-0.288,0-0.56-0.176-0.667-0.46c-0.141-0.37,0.04-0.785,0.41-0.924
					c0.031-0.011,2.818-1.091,5.285-3.098c3.17-2.575,4.343-5.398,3.499-8.397c-0.861-3.026-3.391-4.237-5.835-5.412
					c-0.965-0.462-1.881-0.899-2.639-1.436c-0.803-0.566-1.544-1.328-2.317-2.136c-2.286-2.356-4.643-4.793-9.357-3.472
					c-2.472,0.69-4.009,3.709-4.853,6.115c-0.965,2.714-1.285,5.27-1.294,5.294c-0.046,0.393-0.401,0.67-0.794,0.625
					c-0.393-0.052-0.677-0.406-0.625-0.8c0.062-0.449,1.437-11.003,7.178-12.613c5.542-1.547,8.438,1.45,10.769,3.86
					c0.735,0.753,1.43,1.47,2.115,1.959c0.667,0.466,1.524,0.877,2.439,1.314c2.476,1.186,5.556,2.663,6.589,6.311
					c1.01,3.558-0.379,6.988-3.998,9.919c-2.641,2.14-5.531,3.256-5.644,3.301C561.289,133.747,561.203,133.76,561.122,133.76z"/>
			</g>
		</g>
		<g>
			<g>
				<path fill="#FFFFFF" d="M565.785,121.911c-0.293,0-0.573-0.183-0.677-0.476l0,0c-0.026-0.09-0.816-2.232-3.346-3.062
					c-2.938-0.97-4.505-2.737-5.881-4.295l-0.239-0.269c-1.258-1.416-3.089-1.794-3.106-1.797c-0.393-0.077-0.646-0.453-0.568-0.841
					c0.081-0.39,0.455-0.64,0.848-0.563c0.095,0.018,2.322,0.478,3.894,2.25l0.246,0.271c1.316,1.493,2.684,3.037,5.254,3.885
					c3.225,1.06,4.212,3.831,4.252,3.948c0.136,0.375-0.067,0.783-0.437,0.911C565.945,121.9,565.864,121.911,565.785,121.911z"/>
			</g>
		</g>
	</g>
	<g>
		<g>
			<g>
				<path fill="#FFFFFF" d="M523.625,133.228c-0.095,0-0.194-0.018-0.282-0.059c-0.12-0.049-2.956-1.27-5.522-3.504
					c-3.509-3.066-4.762-6.548-3.626-10.065c1.168-3.603,4.302-4.967,6.819-6.061c0.924-0.401,1.804-0.785,2.484-1.227
					c0.708-0.464,1.425-1.15,2.188-1.88c2.417-2.32,5.432-5.204,10.904-3.455c5.678,1.822,6.66,12.422,6.701,12.875
					c0.036,0.393-0.257,0.737-0.654,0.771c-0.398,0.031-0.734-0.257-0.771-0.649c-0.009-0.102-0.934-10.102-5.712-11.633
					c-4.665-1.493-7.109,0.854-9.477,3.123c-0.812,0.78-1.574,1.511-2.404,2.047c-0.776,0.509-1.709,0.911-2.688,1.339
					c-2.484,1.08-5.06,2.201-6.024,5.19c-0.965,2.972,0.108,5.845,3.204,8.542c2.39,2.088,5.111,3.26,5.143,3.271
					c0.361,0.156,0.528,0.575,0.37,0.938C524.166,133.063,523.899,133.228,523.625,133.228z"/>
			</g>
		</g>
		<g>
			<g>
				<path fill="#FFFFFF" d="M519.403,121.217c-0.09,0-0.167-0.016-0.261-0.05c-0.366-0.142-0.555-0.557-0.406-0.926
					c0.045-0.115,1.136-2.85,4.401-3.788c2.597-0.751,4.018-2.242,5.394-3.685l0.252-0.262c1.632-1.711,3.883-2.09,3.982-2.106
					c0.388-0.061,0.749,0.203,0.816,0.595c0.063,0.388-0.199,0.758-0.591,0.819c-0.018,0.004-1.876,0.327-3.17,1.68l-0.257,0.262
					c-1.434,1.506-3.064,3.213-6.034,4.072c-2.588,0.744-3.45,2.909-3.457,2.932C519.963,121.043,519.688,121.217,519.403,121.217z"
					/>
			</g>
		</g>
	</g>
</g>
<g>
	<path fill="#FFFFFF" d="M1023.179,329.235H56.688c-0.638,0-1.154-0.517-1.154-1.154V144c0-0.637,0.517-1.154,1.154-1.154h380.081
		c0.638,0,1.155,0.517,1.155,1.154c0,0.638-0.517,1.154-1.155,1.154H57.843v181.771h964.181V145.154H643.101
		c-0.639,0-1.154-0.516-1.154-1.154c0-0.637,0.516-1.154,1.154-1.154h380.078c0.638,0,1.154,0.517,1.154,1.154v184.081
		C1024.333,328.718,1023.816,329.235,1023.179,329.235z"/>
</g>
<g>
	<g>
		<path fill="#FFFFFF" d="M103.611,243.799v26.925h-5.353v-26.925H88.238v-4.805h25.435v4.805H103.611z"/>
	</g>
	<g>
		<path fill="#FFFFFF" d="M171.319,270.724v-13.146h-16.816v13.146h-5.348v-31.729h5.348v13.779h16.816v-13.779h5.349v31.729
			H171.319z"/>
	</g>
	<g>
		<path fill="#FFFFFF" d="M221.258,243.799v8.568h15.504v4.803h-15.504v8.749h17.863v4.805H215.91v-31.729h22.665v4.805H221.258z"/>
	</g>
	<g>
		<path fill="#FFFFFF" d="M294.044,270.724h-10.517v-9.654l-11.603-22.122h10.471l6.39,12.239l6.169-12.239h10.471l-11.382,21.896
			V270.724z"/>
	</g>
	<g>
		<path fill="#FFFFFF" d="M371.005,254.812c0,9.43-7.346,16.365-17.452,16.365c-10.115,0-17.452-6.888-17.452-16.365
			c0-9.427,7.337-16.183,17.452-16.183C363.659,238.629,371.005,245.43,371.005,254.812z M346.888,254.86
			c0,4.35,3.17,7.571,6.796,7.571c3.63,0,6.53-3.222,6.53-7.571c0-4.352-2.9-7.479-6.53-7.479
			C350.015,247.38,346.888,250.508,346.888,254.86z"/>
	</g>
	<g>
		<path fill="#FFFFFF" d="M419.308,262.474h-3.941v8.25h-10.512v-31.776h15.36c8.613,0,13.56,4.126,13.56,11.38
			c0,4.624-1.772,8.067-5.03,10.061l6.248,10.336h-11.869L419.308,262.474z M420.214,254.495c2.273,0,3.578-1.402,3.578-3.852
			c0-2.358-1.305-3.716-3.578-3.716h-4.848v7.567H420.214z"/>
	</g>
	<g>
		<path fill="#FFFFFF" d="M482.213,259.802l-3.08,3.443v7.479h-10.517v-31.776h10.517v11.017l9.472-11.017h12.106l-11.337,12.784
			l12.018,18.992h-12.559L482.213,259.802z"/>
	</g>
	<g>
		<path fill="#FFFFFF" d="M562.159,242.257l-3.806,7.979c-3.216-1.768-8.158-3.72-10.92-3.72c-1.18,0-1.953,0.362-1.953,1.316
			c0,3.991,16.458,1.497,16.458,13.011c0,7.07-6.215,10.198-13.371,10.198c-5.533,0-11.698-1.858-15.915-5.075l3.901-7.89
			c3.265,2.721,8.884,4.942,12.1,4.942c1.542,0,2.538-0.498,2.538-1.633c0-4.124-16.451-1.404-16.451-12.555
			c0-6.35,5.348-10.336,13.596-10.336C553.368,238.497,558.583,239.992,562.159,242.257z"/>
	</g>
	<g>
		<path fill="#FFFFFF" d="M615.909,270.724v-11.468h-9.835v11.468h-10.517v-31.776h10.517v12.329h9.835v-12.329h10.517v31.776
			H615.909z"/>
	</g>
	<g>
		<path fill="#FFFFFF" d="M661.862,270.724v-31.776h10.521v31.776H661.862z"/>
	</g>
	<g>
		<path fill="#FFFFFF" d="M722.273,262.474h-3.941v8.25h-10.523v-31.776h15.371c8.613,0,13.557,4.126,13.557,11.38
			c0,4.624-1.768,8.067-5.033,10.061l6.255,10.336H726.08L722.273,262.474z M723.18,254.495c2.264,0,3.583-1.402,3.583-3.852
			c0-2.358-1.319-3.716-3.583-3.716h-4.848v7.567H723.18z"/>
	</g>
	<g>
		<path fill="#FFFFFF" d="M782.099,246.927v3.898h14.868v7.979h-14.868v3.941h16.773v7.978h-27.295v-31.776h26.887v7.979H782.099z"
			/>
	</g>
	<g>
		<path fill="#FFFFFF" d="M848.674,238.995c9.516,0,16.41,6.661,16.41,15.865c0,9.156-6.936,15.864-16.545,15.864h-12.878v-31.729
			H848.674z M841.015,265.919h7.795c6.167,0,10.877-4.577,10.877-11.015c0-6.482-4.848-11.105-11.103-11.105h-7.569V265.919z"/>
	</g>
	<g>
		<path fill="#FFFFFF" d="M907.047,243.799v8.568h15.502v4.803h-15.502v8.749h17.857v4.805h-23.206v-31.729h22.665v4.805H907.047z"
			/>
	</g>
	<g>
		<path fill="#FFFFFF" d="M970.952,270.724l-12.649-31.729h5.755l9.795,25.793l9.88-25.793h5.579l-12.835,31.729H970.952z"/>
	</g>
</g>
</svg>
