<?xml version="1.0" encoding="UTF-8"?>
<svg width="512px" height="512px" viewBox="0 0 512 512" version="1.1" xmlns="http://www.w3.org/2000/svg" xmlns:xlink="http://www.w3.org/1999/xlink">
    <!-- Generator: Sketch 60.1 (88133) - https://sketch.com -->
    <title>RoseLogo@1x</title>
    <desc>Created with Sketch.</desc>
    <g id="RoseLogo" stroke="none" stroke-width="1" fill="none" fill-rule="evenodd">
        <rect fill="#0B536A" x="0" y="0" width="512" height="512"></rect>
        <g id="rounded-logo-blue" transform="translate(7.000000, 11.000000)" fill="#FFFFFF" fill-rule="nonzero">
            <g id="Group">
                <g transform="translate(100.000000, 79.000000)" id="Path">
                    <g transform="translate(128.048023, 0.000000)">
                        <path d="M27.5086219,49.0135153 C26.8282312,49.0135153 26.1597771,48.7379307 25.675799,48.1990485 L15.388551,36.7643385 L4.38618737,48.2575991 C3.45946693,49.2345263 1.89359153,49.2703072 0.912613454,48.3313295 C-0.0640240116,47.3956046 -0.106344968,45.8429301 0.834482457,44.8594973 L13.6609878,31.4546689 C14.1330293,30.9667475 14.7797803,30.6989328 15.4438938,30.6989328 L15.4840444,30.6989328 C16.1644352,30.7086913 16.8079308,30.9981913 17.2745465,31.5088824 L29.3284231,44.9180479 C30.2388662,45.9285874 30.1585649,47.4769248 29.1450323,48.3866272 C28.6708205,48.8040711 28.0848381,49.0135153 27.5086219,49.0135153 Z"></path>
                        <path d="M15.8280379,83.0908529 C14.4748524,83.0908529 13.377763,82.0098359 13.363656,80.6599199 L12.5997085,2.98174214 C12.5899421,1.62748907 13.6783503,0.516112458 15.0304506,0.505269759 L15.0521537,0.505269759 C16.3999134,0.505269759 17.5024285,1.58411828 17.5111098,2.93403427 L18.2805123,80.6132963 C18.286994,81.9686336 17.2050967,83.0810945 15.8443152,83.0908529 L15.8280379,83.0908529 Z"></path>
                    </g>
                    <g transform="translate(205.093868, 104.089908)">
                        <path d="M39.1609921,29.0540954 C38.6922061,29.0540954 38.2190795,28.919646 37.7991254,28.6431572 C36.6727368,27.8928424 36.3645535,26.3694432 37.1187346,25.2374655 L45.6480351,12.4354911 L31.7721871,4.65368628 C30.5861151,3.99011312 30.1629055,2.48948362 30.8302745,1.309798 C31.4965583,0.125775305 32.9918987,-0.298174214 34.180141,0.367567486 L50.3651941,9.45049619 C50.960943,9.78878839 51.3928337,10.3558615 51.5566918,11.0194347 C51.7151241,11.6808393 51.5892464,12.3877833 51.2094429,12.9516036 L41.2086753,27.9600671 C40.7409745,28.6713482 39.9542387,29.0540954 39.1609921,29.0540954 Z"></path>
                        <path d="M3.22398879,26.2306567 C2.1399212,26.2306567 1.14483614,25.5052802 0.852930053,24.407999 C0.503510871,23.0960325 1.28156539,21.7504536 2.59025959,21.4013187 L77.7001916,1.3423261 C79.0132264,0.988854121 80.3620713,1.76844416 80.7093202,3.07824216 C81.0641651,4.38804016 80.2806848,5.73578761 78.9654797,6.08925959 L3.85880314,26.1471679 C3.64936866,26.2013814 3.43667873,26.2306567 3.22398879,26.2306567 Z"></path>
                    </g>
                    <g transform="translate(177.965049, 200.589926)">
                        <path d="M29.3056349,44.4431377 C29.1157332,44.4431377 28.9073838,44.4214523 28.7055454,44.3694073 L11.2150536,39.972693 C9.89984844,39.6354851 9.09683542,38.3029174 9.42997731,36.9876981 C9.7631192,35.6713945 11.0946016,34.8722876 12.4141473,35.2062427 L27.3360827,38.959985 L30.0370278,23.2944539 C30.2779317,21.9575491 31.5432198,21.0565209 32.8833835,21.2885546 C34.2213768,21.5184198 35.1198833,22.7891841 34.8876606,24.1260889 L31.736377,42.4036261 C31.6180954,43.082379 31.2285255,43.6733061 30.6544797,44.0473792 C30.2508029,44.3086882 29.7852724,44.4431377 29.3056349,44.4431377 Z"></path>
                        <path d="M46.4944543,69.2826762 C45.7098888,69.2826762 44.9383453,68.908603 44.4652187,68.2190074 L0.448168081,4.18853451 C-0.323375516,3.07065227 -0.0336397349,1.54183176 1.08081213,0.773084417 C2.20611552,0.00216853974 3.73184027,0.291668595 4.50555417,1.40738229 L48.5182641,65.4421923 C49.2854671,66.5557374 49.0044126,68.0856422 47.8812795,68.852221 C47.4558996,69.1438896 46.9740918,69.2826762 46.4944543,69.2826762 Z"></path>
                    </g>
                    <g transform="translate(53.172484, 200.589926)">
                        <path d="M20.1795003,44.4431377 C19.7042034,44.4431377 19.2365026,44.3086882 18.8306555,44.0484635 C18.2642058,43.6743904 17.8735508,43.0834633 17.7574394,42.4047103 L14.5942192,24.1271731 C14.365252,22.7902684 15.2670139,21.5195041 16.6006666,21.2896389 C17.9495115,21.0565209 19.2126293,21.9575491 19.4426816,23.2955382 L22.1555635,38.9610692 L37.0731582,35.2073269 C38.386193,34.8766246 39.7252715,35.6724787 40.0540728,36.9887823 C40.3850444,38.3040017 39.5885422,39.6365694 38.2755074,39.9737773 L20.7763344,44.3704916 C20.5788366,44.4225366 20.375913,44.4431377 20.1795003,44.4431377 Z"></path>
                        <path d="M2.99068095,69.2826762 C2.51321374,69.2826762 2.03574654,69.1428053 1.60060029,68.8511367 C0.488318733,68.0845579 0.198582951,66.5557374 0.971211702,65.441108 L44.993688,1.40629802 C45.7576356,0.286247246 47.2920415,0.00758988909 48.4151746,0.772000147 C49.5274562,1.54074749 49.8139365,3.069568 49.0467335,4.18745024 L5.01557596,68.2179231 C4.54678998,68.9096873 3.77524638,69.2826762 2.99068095,69.2826762 Z"></path>
                    </g>
                    <g transform="translate(0.000000, 101.921368)">
                        <path d="M41.533136,29.7523652 C40.7366338,29.7523652 39.948813,29.3620281 39.4713457,28.6388201 L29.619244,13.5414464 C29.2383554,12.9689519 29.1222441,12.2685136 29.2861021,11.6049404 C29.455386,10.9391987 29.8861916,10.3753784 30.4938771,10.0446761 L46.7559761,1.11462943 C47.9474738,0.459730425 49.440644,0.893438373 50.1004168,2.08179815 C50.7547639,3.27015793 50.3120216,4.76645035 49.1270348,5.41809654 L35.1795667,13.0752104 L43.5916707,25.9552521 C44.3371706,27.0937355 44.0137951,28.6117133 42.876555,29.3555225 C42.4598564,29.6222528 41.995411,29.7523652 41.533136,29.7523652 Z"></path>
                        <path d="M77.4950977,27.256376 C77.2758969,27.256376 77.063207,27.228185 76.8396655,27.1642131 L1.91855004,6.42213044 C0.605515229,6.05890003 -0.156261994,4.70464697 0.20183841,3.40243885 C0.571875494,2.09264085 1.91855004,1.32497778 3.23049971,1.68820819 L78.1548706,22.4281223 C79.4603094,22.7891841 80.231853,24.1456057 79.8672416,25.4521509 C79.5720801,26.5418421 78.576995,27.256376 77.4950977,27.256376 Z"></path>
                    </g>
                </g>
                <g transform="translate(138.000000, 0.000000)" id="Path">
                    <path d="M24.6408873,123.890216 C23.8384748,123.890216 23.055554,123.502082 22.5877508,122.788347 C22.0961242,122.04658 10.4443576,104.349826 4.22538969,81.8693202 C-4.14417384,51.5916338 1.67629504,27.4550897 21.05981,12.0709674 C40.9089625,-3.6894293 62.8859701,0.17358215 82.2857283,3.579458 C89.3482581,4.82472125 96.0274492,5.9988266 101.92372,6.0397963 C102.042836,6.04518705 102.157621,6.04518705 102.27024,6.04518705 C108.377672,6.04518705 115.220378,4.8020801 122.459417,3.493206 C144.881487,-0.57249765 172.788334,-5.63117745 197.035054,24.4610672 C207.668915,37.6522324 209.020347,58.2093185 201.066609,85.561984 C195.239642,105.592933 186.560376,121.604538 186.191114,122.280538 C185.544636,123.460035 184.064342,123.906389 182.869928,123.257342 C181.678762,122.611531 181.233699,121.132309 181.879095,119.9485 C182.234278,119.309157 216.2648,56.1274108 193.204915,27.5176224 C170.793673,-0.301882 145.582109,4.26623955 123.339796,8.30067685 C115.72933,9.6753181 108.492457,10.9885048 101.885819,10.9270502 C95.5845521,10.8774553 88.710443,9.6688492 81.4302547,8.38908515 C63.0613963,5.1621822 42.2376537,1.50401925 24.1146087,15.8897747 C-18.9774358,50.098396 26.2240549,119.401878 26.6799465,120.100519 C27.4314638,121.227186 27.1109319,122.741987 25.9869046,123.483754 C25.5699966,123.756526 25.0967789,123.890216 24.6408873,123.890216 Z"></path>
                    <path d="M46.404568,37.7902356 C45.632476,37.7902356 44.8744615,37.4322898 44.4001609,36.7584461 C43.6237375,35.6544205 43.8803795,34.1353071 44.984915,33.3590391 C45.650885,32.8846531 61.5897652,21.8961483 83.0610689,28.5914598 C101.827343,34.4490488 116.232869,31.1650039 130.165176,27.9930866 L132.641718,27.4313704 C147.982849,23.9748215 161.815532,30.0954791 162.400286,30.3553132 C163.634767,30.9127168 164.189201,32.3595941 163.617441,33.5897632 C163.068422,34.8145416 161.603288,35.3568511 160.375305,34.8059164 C160.259437,34.7487745 147.412173,29.1068155 133.721347,32.1914027 L131.262131,32.7509625 C117.373139,35.9142546 101.63026,39.5023378 81.5894378,33.2544586 C62.5297033,27.298758 47.9671609,37.2436136 47.8155579,37.3460378 C47.3856554,37.6479198 46.8940288,37.7902356 46.404568,37.7902356 Z"></path>
                </g>
                <g transform="translate(0.000000, 74.000000)" id="Path">
                    <path d="M89.6728289,206.50807 C82.8206011,206.50807 75.1447621,206.155052 67.2023332,205.152307 C32.8544981,200.804552 10.7069447,186.037346 3.18390723,162.450099 C-4.5331123,138.260771 6.93458896,119.105744 17.0530851,102.209599 C20.741996,96.0480239 24.2315063,90.2318865 26.3707279,84.7395297 C28.6269889,78.9742875 29.9285112,72.0124653 31.3015577,64.6413152 C35.4878863,42.235488 40.685306,14.3502983 77.5950052,2.47112744 C93.7832987,-2.73426678 113.568389,3.35475583 136.420346,20.5768465 C153.152657,33.1880428 165.089599,47.0391345 165.590268,47.6228057 C166.476734,48.6482911 166.353192,50.1989723 165.325846,51.0782692 C164.293081,51.9651462 162.744475,51.8395323 161.862344,50.8140469 C161.390935,50.2628621 114.190432,-4.16149989 79.103514,7.1394142 C44.9810883,18.1230451 40.2745841,43.3151173 36.1272686,65.5390211 C34.7054557,73.1473214 33.3670877,80.3311336 30.9482718,86.5251954 C28.6573325,92.3976424 25.060536,98.3870402 21.2643389,104.728373 C11.6801062,120.737641 0.813857838,138.88126 7.86006778,160.960059 C24.668237,213.644236 114.981532,199.978316 115.887504,199.837542 C117.236709,199.618801 118.490549,200.535998 118.693201,201.874436 C118.907773,203.21179 117.99855,204.471177 116.658014,204.682338 C115.992623,204.781963 104.877124,206.50807 89.6728289,206.50807 Z"></path>
                    <path d="M34.0834126,149.55952 C32.9910442,149.55952 31.9951249,148.823163 31.7101121,147.716462 C31.5020419,146.924878 26.8768152,128.087133 40.8196847,110.43514 C53.0112968,95.0019638 55.0659898,80.3701172 57.0599957,66.2179855 L57.4176163,63.6948799 C59.6446174,48.1241782 70.3223022,37.3863606 70.7807068,36.9358834 C71.7430314,35.9872823 73.3024741,35.9905309 74.252878,36.9532094 C75.2087004,37.9169708 75.1967797,39.4687348 74.2377062,40.4249161 C74.1390896,40.5169607 64.2644256,50.4913493 62.2758383,64.3911704 L61.9225524,66.89695 C59.933965,81.0068494 57.6928758,96.9998736 44.6722341,113.475861 C32.2801377,129.160265 36.4198673,146.329295 36.4653827,146.501472 C36.7980782,147.813921 36.0048107,149.148026 34.6946188,149.481553 C34.4908834,149.533531 34.2925665,149.55952 34.0834126,149.55952 Z"></path>
                </g>
                <g transform="translate(319.000000, 74.000000)" id="Path">
                    <path d="M90.5647131,204.611689 C73.1702628,204.611689 59.6359478,201.635871 58.933711,201.479306 C57.6115984,201.183572 56.7814851,199.867993 57.0686653,198.541542 C57.3677661,197.212915 58.685544,196.373554 59.9968196,196.673637 C60.8171796,196.854121 142.024153,214.33284 158.782472,161.609649 C165.824347,139.44051 154.962434,121.223545 145.381452,105.150648 C141.577669,98.7836804 137.994961,92.7700705 135.698603,86.8738843 C133.276536,80.6547831 131.932749,73.4419305 130.514188,65.8028738 C126.364705,43.4891304 121.663619,18.1952198 87.5368585,7.16718787 C52.4466897,-4.17071187 5.25052094,50.4649613 4.78453043,51.0183743 C3.90131587,52.0480052 2.35162651,52.1741269 1.3231963,51.2836646 C0.290431292,50.4008132 0.166889623,48.8438634 1.05227159,47.8142325 C1.55185676,47.2271146 13.4920507,33.3211175 30.2146077,20.6589406 C53.0741513,3.3672301 72.8646597,-2.74858176 89.0497021,2.48002966 C125.948564,14.4072219 131.158988,42.4051367 135.345317,64.9015391 C136.715112,72.3024868 138.015551,79.2924521 140.271812,85.081 C142.417536,90.5955596 145.902711,96.4352086 149.592706,102.621692 C159.714453,119.587226 171.178903,138.8186 163.459716,163.105712 C155.921507,186.820928 135.333396,200.957423 103.912632,203.990866 C99.3253346,204.435553 94.8290681,204.611689 90.5647131,204.611689 Z"></path>
                    <path d="M132.555876,150.164111 C132.351057,150.164111 132.144071,150.138017 131.947921,150.088003 C130.633394,149.749866 129.836876,148.40928 130.172822,147.093701 C130.247598,146.805579 134.314719,129.631292 121.965971,113.934585 C108.955083,97.3919934 106.700989,81.335405 104.724322,67.1673794 L104.371036,64.6514703 C102.371612,50.6313114 92.5067014,40.6840114 92.4048337,40.5883329 C91.4446766,39.6282863 91.436007,38.0702493 92.3950805,37.1025919 C93.3444006,36.1371091 94.8962574,36.1262365 95.8672516,37.0851958 C96.3148192,37.5374941 106.996839,48.3187191 109.231426,63.9523651 L109.584712,66.4856702 C111.574383,80.6939243 113.629076,95.3860071 125.826106,110.881572 C139.765725,128.604923 135.137247,147.518818 134.931344,148.313602 C134.648499,149.426952 133.652579,150.164111 132.555876,150.164111 Z"></path>
                </g>
                <g transform="translate(246.000000, 270.000000)" id="Path">
                    <path d="M67.8898733,185.577031 C61.975254,185.577031 55.5411438,184.705793 48.4684928,182.71346 C32.1175195,178.120447 18.9928006,162.077494 9.45797961,135.025652 C2.48381545,115.220731 0.174245877,97.029013 0.080088167,96.2631488 C-0.0854995296,94.9171833 0.871229384,93.6852827 2.21974095,93.5190739 C3.54985389,93.3474334 4.7901382,94.304492 4.95031454,95.6569755 C5.03906088,96.3793864 14.3346996,168.016472 49.7888653,177.975965 C84.2657389,187.662789 102.079945,169.191884 117.782637,152.893643 C123.170189,147.3175 128.248212,142.04553 133.683385,138.205346 C138.826344,134.560702 145.119759,131.535267 151.784393,128.329501 C168.593167,120.237413 187.64874,111.072028 193.955142,88.6990182 C208.981414,35.4600533 131.726636,5.14595529 130.948482,4.84721395 C129.684388,4.3583645 129.054505,2.93526941 129.535034,1.66643348 C130.022057,0.396511227 131.435505,-0.238993068 132.701764,0.245511061 C133.539442,0.568151703 153.353688,8.25829683 171.541278,23.0367591 C196.042845,42.9416227 205.427231,66.1120006 198.677097,90.0395521 C191.76354,114.548291 171.646258,124.229683 153.901318,132.763908 C147.43041,135.878423 141.325311,138.82021 136.510281,142.226947 C131.441998,145.803153 126.525234,150.906741 121.308681,156.316675 C108.483751,169.628589 93.0927536,185.577031 67.8898733,185.577031 Z"></path>
                    <path d="M72.6756824,157.699576 C71.5284735,157.699576 70.5024792,156.885913 70.2676261,155.721365 C70.001387,154.386263 70.8726164,153.089182 72.1984002,152.82629 C72.3217793,152.796959 86.0536531,149.918179 95.38176,139.389448 L97.0484597,137.492712 C106.486958,126.787995 117.178729,114.644975 137.110942,108.059629 C156.077768,101.793666 162.097368,85.1391078 162.157975,84.9718127 C162.602789,83.6921134 164.006496,83.0196739 165.281413,83.4596384 C166.56066,83.9072072 167.234915,85.306403 166.795513,86.5861022 C166.52278,87.3628297 159.99343,105.682735 138.640193,112.737376 C119.974239,118.905569 110.184001,130.010056 100.72061,140.752795 L99.0452525,142.658221 C88.6034872,154.454702 73.774189,157.526849 73.1540469,157.651777 C72.9906237,157.683281 72.8304474,157.699576 72.6756824,157.699576 Z"></path>
                </g>
                <g transform="translate(49.000000, 273.000000)" id="Path">
                    <path d="M135.414732,183.556714 C111.369145,183.556714 95.8866535,168.712163 82.9001454,156.264769 C77.4646406,151.058803 72.3378724,146.139584 67.121962,142.755109 C62.1680429,139.533558 55.9269962,136.819244 49.3076385,133.950695 C31.1758815,126.079293 10.6329345,117.160832 2.77971717,92.9307726 C-4.88760594,69.2731193 3.66679155,45.7718731 27.5232222,24.971907 C45.2397067,9.52453798 64.8444855,1.10028019 65.6652467,0.752708955 C66.9208483,0.218318182 68.3656055,0.800499999 68.8939366,2.05067028 C69.426616,3.30084057 68.8439299,4.74760583 67.5948509,5.27873812 C66.8251834,5.61218928 -9.5784466,38.8182761 7.46729653,91.4155793 C14.632379,113.528713 34.099096,121.983383 51.2720299,129.4377 C58.0751077,132.393142 64.5063971,135.183487 69.8114498,138.627701 C75.4121939,142.266337 80.7031143,147.339791 86.3071198,152.715197 C102.69408,168.412383 121.25198,186.209117 155.496748,175.24433 C190.716645,163.964558 197.382748,92.0477245 197.444713,91.3199972 C197.56212,89.968814 198.756844,88.9532543 200.117894,89.0803351 C201.465899,89.1987265 202.471468,90.3935026 202.351887,91.7446858 C202.088808,94.839156 195.322692,167.657502 156.996947,179.928939 C149.091549,182.45752 141.934076,183.556714 135.414732,183.556714 Z"></path>
                    <path d="M131.684888,155.836821 C131.550088,155.836821 131.423984,155.827046 131.289184,155.806409 C130.659752,155.703224 115.663194,153.187677 104.738917,141.786254 L102.979987,139.946299 C93.0873685,129.564781 82.8534,118.834605 63.8780527,113.369047 C42.1871271,107.116024 34.961167,89.0564395 34.6567788,88.2906967 C34.1697575,87.0231478 34.7872309,85.5981058 36.0602261,85.1060752 C37.3201761,84.6151309 38.7518881,85.2429314 39.2519545,86.5050494 C39.3324,86.7157645 46.0093741,103.092887 65.2510612,108.642079 C85.4994038,114.478017 96.6813243,126.206374 106.546766,136.545532 L108.298085,138.383315 C118.090691,148.59865 131.934922,150.926292 132.067548,150.945842 C133.420989,151.163074 134.330892,152.424106 134.108036,153.765514 C133.911271,154.975496 132.870915,155.836821 131.684888,155.836821 Z"></path>
                </g>
                <g transform="translate(86.000000, 18.000000)" id="Path">
                    <path d="M76.9552655,104.908836 C76.1903286,104.908836 75.4286654,104.559193 74.944169,103.897446 L18.8593488,27.1670072 C18.0551284,26.0773238 18.3082887,24.5586313 19.4213209,23.7810521 C20.5321707,22.9948927 22.0773213,23.2458631 22.8706296,24.3312564 L78.9630883,101.061696 C79.7509405,102.151379 79.5054187,103.668999 78.3945689,104.454086 C77.9559032,104.764045 77.4550387,104.908836 76.9552655,104.908836 Z"></path>
                    <path d="M2.71601684,57.9194586 C2.67345973,57.9194586 2.63635865,57.9194586 2.59052792,57.9151685 C1.22215302,57.8518897 0.17350208,56.7107252 0.244430604,55.3679265 L2.94844416,2.54616956 C2.99427489,1.76751788 3.40784275,1.05214505 4.07347966,0.626353422 C4.7434814,0.20485189 5.56843469,0.121195097 6.31372979,0.403268641 L58.3818132,20.3843718 C59.6508882,20.8691522 60.2761504,22.2795199 59.786198,23.5332993 C59.2907895,24.7827886 57.8558509,25.4016343 56.5747727,24.9114913 L7.70829368,6.16057201 L5.18105583,55.6156793 C5.11230972,56.9134321 4.0254665,57.9194586 2.71601684,57.9194586 Z"></path>
                </g>
                <g transform="translate(319.000000, 18.000000)" id="Path">
                    <path d="M2.93534966,104.908836 C2.42902912,104.908836 1.93471188,104.764045 1.49386382,104.453013 C0.387378858,103.667926 0.13421859,102.151379 0.927526844,101.060623 L57.0079823,24.3301839 C57.8154762,23.2426456 59.3540796,22.9948927 60.4692942,23.7799796 C61.5768704,24.5575587 61.8278482,26.0762513 61.0356312,27.1659346 L4.94535489,103.896374 C4.46194972,104.560266 3.70683375,104.908836 2.93534966,104.908836 Z"></path>
                    <path d="M77.168051,57.9194586 C75.8575102,57.9194586 74.7717581,56.9134321 74.7095593,55.6156793 L72.1757742,6.16057201 L23.3114776,24.9114913 C22.0325818,25.4027068 20.5976432,24.7827886 20.1022347,23.5332993 C19.6079175,22.2805924 20.2440918,20.8702247 21.5109843,20.3843718 L73.5747029,0.403268641 C74.3156332,0.121195097 75.1449513,0.20485189 75.8193179,0.626353422 C76.486046,1.05107252 76.9028875,1.76644535 76.9399885,2.54616956 L79.6450933,55.3679265 C79.7072922,56.7107252 78.6608236,57.8518897 77.298996,57.9151685 C77.2597125,57.9194586 77.2138818,57.9194586 77.168051,57.9194586 Z"></path>
                </g>
                <g transform="translate(375.000000, 264.000000)" id="Path">
                    <path d="M92.9641282,40.7709303 C92.7132975,40.7709303 92.4548987,40.7319047 92.197581,40.6473492 L1.76987007,10.6810948 C0.489768565,10.2550652 -0.214071029,8.86857169 0.210827528,7.57747416 C0.641131919,6.28962876 2.02394427,5.59041978 3.31377627,6.01861753 L93.7393248,35.9848719 C95.0215887,36.4130697 95.7178601,37.8006472 95.2951239,39.0852404 C94.9513128,40.1183353 93.9988049,40.7709303 92.9641282,40.7709303 Z"></path>
                    <path d="M69.7503956,66.9722966 C68.7373423,66.9722966 67.8129447,66.3587272 67.4431857,65.3700782 C66.9772028,64.0930733 67.6183347,62.6827308 68.897355,62.2133393 L115.715121,44.862116 L83.1914614,4.20717843 C82.3481513,3.14698247 82.5189757,1.60005034 83.5666263,0.753411236 C84.6272509,-0.0953959551 86.1625078,0.0715469663 87.0198731,1.12957483 L121.661539,44.4458427 C122.148064,45.0626643 122.316726,45.8789501 122.110223,46.6366975 C121.899396,47.4020333 121.336108,48.0134346 120.600914,48.287698 L70.5926246,66.8183622 C70.3071965,66.9245987 70.0260932,66.9722966 69.7503956,66.9722966 Z"></path>
                </g>
                <g transform="translate(215.000000, 366.000000)" id="Path">
                    <path d="M34.1805574,96.549692 L34.1569298,96.549692 C32.8219699,96.5453827 31.732952,95.4454482 31.7414934,94.0977321 L32.2796089,2.48427924 C32.2903488,1.143027 33.3804407,0.0592521067 34.7164745,0.0592521067 L34.7293623,0.0592521067 C36.073988,0.0657159729 37.1544141,1.16349591 37.1490641,2.50798008 L36.6056092,94.1246648 C36.6045352,95.4648398 35.5198132,96.549692 34.1805574,96.549692 Z"></path>
                    <path d="M34.568265,124.300147 C33.8046637,124.300147 33.0840216,123.941402 32.6254312,123.331644 L0.735677805,80.9189862 C-0.0730307894,79.8438298 0.137469721,78.3129708 1.21037794,77.499601 C2.2865081,76.6894631 3.80619291,76.9016934 4.61704947,77.9800817 L34.4780505,117.687612 L63.7343995,75.0174764 C64.5033708,73.9089233 66.0144637,73.6266678 67.1281833,74.3883267 C68.231163,75.1532176 68.5114723,76.6722261 67.7414271,77.7829338 L36.5733898,123.242227 C36.1276871,123.891846 35.4091931,124.283987 34.6165942,124.29907 C34.6165942,124.300147 34.5865227,124.300147 34.568265,124.300147 Z"></path>
                </g>
                <g transform="translate(1.000000, 268.000000)" id="Path">
                    <path d="M29.469778,40.7493118 C28.4827623,40.7493118 27.5666312,40.1558335 27.1971715,39.1867361 C26.7203108,37.9343145 27.346459,36.5252061 28.5976814,36.0487064 L102.372547,7.84507424 C103.626991,7.36857452 105.035019,7.99317551 105.521546,9.24667027 C105.99411,10.5033846 105.372258,11.9082002 104.112444,12.3889928 L30.3300606,40.5904785 C30.0529658,40.6935055 29.7586869,40.7493118 29.469778,40.7493118 Z"></path>
                    <path d="M52.5373786,66.688497 C52.267802,66.688497 51.9778191,66.6391299 51.6942803,66.5318102 L2.01914001,48.1865709 C1.28236871,47.9161251 0.724957184,47.3108417 0.516599119,46.557457 C0.311463087,45.8008527 0.473638694,44.9927349 0.966609579,44.3853051 L35.3779106,1.5024766 C36.227453,0.45932856 37.7546961,0.289763344 38.8072266,1.12793065 C39.8511649,1.96931754 40.0165626,3.49755088 39.1777602,4.5492845 L6.87259411,44.797413 L53.3890691,61.9728669 C54.6424395,62.4375615 55.2868459,63.8359379 54.8260953,65.0980182 C54.4641537,66.0778476 53.5308385,66.688497 52.5373786,66.688497 Z"></path>
                </g>
                <path d="M240.989871,268 C220.042773,268 203,250.503395 203,228.998906 C203,207.494417 220.042773,190 240.989871,190 C261.945499,190 279,207.494417 279,228.998906 C279,250.503395 261.945499,268 240.989871,268 Z M240.989871,194.956514 C222.697544,194.956514 207.827631,210.228706 207.827631,228.998906 C207.827631,247.769106 222.697544,263.04458 240.989871,263.04458 C259.291795,263.04458 274.16384,247.769106 274.16384,228.998906 C274.16384,210.228706 259.291795,194.956514 240.989871,194.956514 Z" id="Shape"></path>
                <path d="M259.516685,202 C258.973201,202 258.41524,201.825627 257.958624,201.468161 C256.861634,200.617 256.681215,199.065077 257.546557,197.99486 L279.506416,170.933188 C280.365076,169.864061 281.962116,169.688597 283.049084,170.536488 C284.137165,171.384379 284.319811,172.934123 283.450014,174.00761 L261.500178,201.067102 C261.004583,201.679589 260.261748,202 259.516685,202 Z" id="Path"></path>
                <path d="M240.947393,303 C239.827475,303 238.913499,301.959843 238.875226,300.636497 L238.001344,266.512688 C237.960339,265.163499 238.862469,264.041508 240.002434,264.000591 C241.124174,263.971519 242.095559,265.018136 242.128363,266.364094 L242.9986,300.487904 C243.040517,301.836015 242.135653,302.959083 241.002978,303 L240.947393,303 Z" id="Path"></path>
                <path d="M308.558162,251 C308.350879,251 308.143596,250.972116 307.936313,250.922543 L274.828295,242.6037 C273.520902,242.273218 272.736035,240.994667 273.081506,239.745033 C273.426977,238.494367 274.755962,237.74975 276.067673,238.077134 L309.171373,246.394944 C310.489562,246.721295 311.262553,248.006043 310.918162,249.24948 C310.633148,250.304956 309.642077,251 308.558162,251 Z" id="Path"></path>
                <path d="M174.411319,255 C173.379725,255 172.435338,254.29149 172.110971,253.183015 C171.712159,251.819704 172.422576,250.366116 173.692394,249.938724 L205.87281,239.116804 C207.143691,238.695126 208.494335,239.45049 208.885703,240.8138 C209.290896,242.177111 208.583669,243.630699 207.319169,244.054662 L175.123863,254.878868 C174.883513,254.961146 174.650606,255 174.411319,255 Z" id="Path"></path>
                <path d="M219.47591,202 C218.759762,202 218.042498,201.709024 217.543872,201.13897 L194.59924,175.037649 C193.699035,174.008956 193.827317,172.46105 194.888154,171.582713 C195.951221,170.709784 197.537456,170.829852 198.456624,171.860708 L221.396794,197.963111 C222.302576,198.98964 222.173179,200.538629 221.110111,201.412639 C220.633795,201.805295 220.04816,202 219.47591,202 Z" id="Path"></path>
                <g transform="translate(188.000000, 278.000000)" id="Path">
                    <path d="M74.2038908,63.8653402 C69.5919887,63.8653402 65.1359454,63.0459399 61.0500665,62.300536 C57.4977871,61.6508919 54.1944487,61.043687 51.2363806,61.0589215 C48.4579829,61.0817733 45.242315,61.6508919 41.8329061,62.2559205 C32.5755492,63.8968974 21.0495824,65.944854 10.8949556,57.8074368 C0.992516815,49.8669804 -1.9947748,37.4921866 2.24479812,22.0139007 C5.33383082,10.7240233 11.1406495,1.81508583 11.3841787,1.44510431 C12.1266722,0.310131572 13.6430474,0.00108818095 14.7784347,0.749756677 C15.9084102,1.49842517 16.2168805,3.02731941 15.4689753,4.16229215 C15.2546696,4.49854006 -6.21811244,37.7794663 13.9547648,53.9530999 C22.3722165,60.7030863 31.8363027,59.0251113 40.9832598,57.4004571 C44.5983156,56.7595185 48.0055598,56.1523136 51.1995806,56.1316381 C54.5884248,56.0794054 58.1396219,56.7551658 61.9148658,57.4483371 C72.9754212,59.4680009 84.4018116,61.5638375 94.8908852,48.4066415 C105.644053,34.9360495 89.399031,4.45174828 89.2301841,4.14705761 C88.5883493,2.9478822 89.0299489,1.45272157 90.2086303,0.806342087 C91.4046293,0.154521695 92.8906986,0.595234982 93.5379452,1.79114585 C94.2826033,3.16007749 111.509318,35.4692582 98.7202467,51.4905464 C90.8602062,61.3418485 82.2988016,63.8653402 74.2038908,63.8653402 Z"></path>
                    <path d="M70.997964,51.0139231 C69.4025771,51.0139231 67.698955,50.8583132 65.9682741,50.4643917 L64.7571222,50.1847292 C58.1039043,48.655835 51.2342159,47.0736199 42.3708351,49.8626277 C31.3016208,53.3556885 23.0021454,47.5850649 22.6601222,47.3369597 C21.5485466,46.5480285 21.2855351,45.011517 22.072405,43.9015724 C22.8484514,42.7916278 24.3767325,42.528288 25.4828963,43.3085138 C25.7816255,43.5152682 32.2335259,47.8973729 40.9064128,45.1605978 C51.028569,41.9700512 58.9026801,43.7807843 65.844886,45.3804103 L67.0560379,45.6546319 C73.3196092,47.0779726 79.2422395,44.4696029 79.308263,44.4456629 C80.5356502,43.8939551 81.9903313,44.4434865 82.5401661,45.6818364 C83.1019068,46.9245391 82.5574838,48.379437 81.319273,48.9409384 C81.0876497,49.0454038 76.6792299,51.0139231 70.997964,51.0139231 Z"></path>
                </g>
                <g transform="translate(121.000000, 203.000000)" id="Path">
                    <path d="M44.8642991,103.361492 C42.8068295,103.361492 40.7657149,103.074669 38.7714849,102.439329 C19.8835428,96.3965571 17.2438321,82.3552042 15.1242131,71.0706019 C14.4525643,67.5248166 13.8332518,64.1738547 12.7625389,61.4668923 C11.7441623,58.8768239 10.0486852,56.0778615 8.26925197,53.1089699 C3.39761741,45.0400355 -2.65485427,34.9925615 1.32597335,22.6245248 C5.18141198,10.5887702 16.4500653,3.06642357 33.8780436,0.873578353 C46.6328289,-0.72938501 58.1010143,1.03917821 58.5851248,1.11061345 C59.9338741,1.32708386 60.8464879,2.58152986 60.6382331,3.91606992 C60.4277977,5.25277468 59.1662755,6.17060921 57.8120745,5.95846821 C57.3737582,5.88595062 13.9662731,-0.603832174 6.02424401,24.1138412 C2.73032995,34.3712915 7.69573366,42.6155669 12.5063092,50.5925014 C14.3991377,53.7388988 16.1971067,56.7121198 17.3615887,59.6799291 C18.5980331,62.8155029 19.2675012,66.3894293 19.9805829,70.1657556 C22.0565884,81.2089934 24.2078272,92.626725 40.2794237,97.7700619 C48.7055633,100.461871 58.8555289,94.7427232 65.9012994,89.4716688 C73.8237024,83.5425444 79.6308478,76.8525265 79.6864551,76.7843383 C80.5718103,75.7582685 82.1353564,75.6381275 83.1679075,76.5202444 C84.1971874,77.4001966 84.3291185,78.9457953 83.4404922,79.9772768 C82.5235171,81.0368994 63.0238948,103.361492 44.8642991,103.361492 Z"></path>
                    <path d="M36.6507756,85.98866 C36.0227403,85.98866 35.4001568,85.7505425 34.9084139,85.2743076 C34.6696297,85.0480961 29.1241656,79.5086183 27.9694966,71.4764839 L27.7928617,70.246932 C26.8388151,63.4865612 25.8520583,56.4988964 20.0634487,49.2157496 C12.8083331,40.1045102 15.2397891,30.3070596 15.3433713,29.8968482 C15.683557,28.5872022 17.031216,27.7970852 18.3505262,28.1326143 C19.6676557,28.4648964 20.4723258,29.7961894 20.1266884,31.1036707 C20.048184,31.4435292 18.2589377,39.034064 23.9297907,46.1797522 C30.5579614,54.5030393 31.6864622,62.5048679 32.6819417,69.5639679 L32.8607573,70.7848609 C33.7842744,77.1999615 38.3429817,81.7469224 38.3931373,81.7945458 C39.3591776,82.7470156 39.363539,84.2980261 38.40186,85.2602371 C37.9221108,85.7462131 37.2864432,85.98866 36.6507756,85.98866 Z"></path>
                </g>
                <g transform="translate(277.000000, 204.000000)" id="Path">
                    <path d="M39.206409,101.985854 C21.0511747,101.990182 1.54610067,79.6695176 0.637848303,78.6113687 C-0.25622966,77.5802687 -0.129750339,76.0352416 0.904981353,75.1556148 C1.93971304,74.2749061 3.50107846,74.3982486 4.38861439,75.4196111 C4.61431456,75.6846892 27.3140818,101.658023 43.7934651,96.3975737 C59.8781457,91.2561389 62.0206618,79.8426298 64.0923059,68.8034761 C64.8021165,65.0296283 65.4781267,61.4570237 66.7145711,58.3215275 C67.8757821,55.3548157 69.6770221,52.3826943 71.5654892,49.2374605 C76.3706131,41.2634761 81.3458299,33.0222495 78.0497351,22.7685928 C70.1458679,-1.80794138 31.2829156,6.44951442 30.8903936,6.53390666 C29.5579994,6.82927948 28.2441409,5.99834054 27.9432074,4.67403159 C27.6477255,3.35188654 28.4861962,2.04488882 29.8185904,1.75167989 C30.2601777,1.65214033 40.6750956,-0.61022079 52.3602585,0.506353422 C68.3697057,2.03298735 78.8783928,9.21714701 82.7512768,21.2798271 C86.7255624,33.6432899 80.6687294,43.687048 75.8014562,51.7529983 C74.0154809,54.720792 72.3221845,57.5187193 71.3125306,60.1078298 C70.2439984,62.8137912 69.6159631,66.1635138 68.9508564,69.7079877 C66.823605,80.9894987 64.1904364,95.0245769 45.3079459,101.065114 C43.3049932,101.699137 41.2693304,101.985854 39.206409,101.985854 Z"></path>
                    <path d="M47.4242939,84.6194468 C46.7886263,84.6194468 46.1485973,84.3770897 45.6666675,83.8912933 C44.7104402,82.9294382 44.7191629,81.3790013 45.6873839,80.4268838 C45.7168231,80.3857696 50.2984274,75.7755732 51.2132218,69.4212705 L51.3920374,68.1965011 C52.3831556,61.1410937 53.5138371,53.1454703 60.1321947,44.8241793 C65.8848231,37.5967416 63.9690976,29.8402294 63.9472908,29.7688206 C63.6147374,28.4553312 64.4030525,27.1169569 65.7180013,26.7847977 C67.0503955,26.4450648 68.3915125,27.2381355 68.7306079,28.548379 C68.8385514,28.9584388 71.2612847,38.752266 64.0127111,47.8601359 C58.2208305,55.1405893 57.2308027,62.1235059 56.2811174,68.8770488 L56.0979405,70.1126377 C54.9443618,78.1418017 49.3956268,83.6792308 49.1633846,83.9053587 C48.6781837,84.3814175 48.0512388,84.6194468 47.4242939,84.6194468 Z"></path>
                </g>
                <g transform="translate(241.000000, 117.000000)" id="Path">
                    <path d="M65.8522555,93.9624746 C64.8656521,93.9624746 63.9386132,93.3559195 63.5617328,92.3723168 C63.0808855,91.0914475 63.7101024,89.6619449 64.9739511,89.1745151 C65.0725031,89.1362639 74.6288019,85.394202 83.0847834,78.4652673 C93.9482504,69.5560125 97.9758881,59.7855589 95.0734764,49.4172933 C92.137492,38.956132 83.4670786,34.7627058 75.0804085,30.7037052 C71.7729587,29.1037115 68.6398703,27.5933349 66.0385297,25.7397902 C63.2823216,23.780235 60.7513753,21.1441797 58.0796403,18.350748 C50.2669546,10.2032388 42.1867704,1.77485646 26.0155722,6.34314463 C17.5595907,8.73002055 12.3049259,19.1671383 9.38735241,27.4971604 C6.09723051,36.8741729 4.98066841,45.7123898 4.97417047,45.8041927 C4.80305814,47.1604715 3.56845018,48.1145662 2.23095823,47.9560969 C0.893466283,47.7856057 -0.0714773026,46.549545 0.103966986,45.1910803 C0.294573126,43.6391738 5.01099211,7.13549126 24.6943251,1.57157856 C43.6704659,-3.78796335 53.6155579,6.57811639 61.59719,14.9103243 C64.1118915,17.5267075 66.4879703,19.9977361 68.8640491,21.6895328 C71.1394099,23.3037341 74.0775602,24.7288652 77.1998188,26.2414276 C85.6904559,30.3452367 96.2485199,35.4534134 99.7844804,48.0686647 C103.243549,60.3746276 98.5022209,72.2379692 86.0889961,82.3789132 C77.0297894,89.7788843 67.1410129,93.6367928 66.7305599,93.7985408 C66.4392358,93.90783 66.1403307,93.9624746 65.8522555,93.9624746 Z"></path>
                    <path d="M81.8328476,52.9855854 C80.8267504,52.9855854 79.8748027,52.3440579 79.5195822,51.3298542 L79.5195822,51.3298542 C79.4102002,51.0172871 76.7016436,43.6195018 68.0507241,40.7430103 C57.9659264,37.3976681 52.6181246,31.2829379 47.8865438,25.8917022 L47.0732187,24.9583725 C42.7640038,20.0665883 36.4750841,18.7573038 36.4090218,18.7463749 C35.0834427,18.4797092 34.2192171,17.1737034 34.4856325,15.8338179 C34.746633,14.4961182 36.0332244,13.6196189 37.3707164,13.8906561 C37.6956132,13.9551368 45.3393526,15.5507589 50.7402209,21.6687678 L51.5697909,22.6152122 C56.0847738,27.7747549 60.7643711,33.1102532 69.5809881,36.0370177 C80.6166504,39.7080416 84.0172373,49.2948894 84.1547769,49.7025381 C84.6031346,50.9921506 83.9197682,52.3997953 82.6429237,52.8500668 C82.3743423,52.939684 82.1057609,52.9855854 81.8328476,52.9855854 Z"></path>
                </g>
                <g transform="translate(146.000000, 116.000000)" id="Path">
                    <path d="M33.6908957,93.2214938 C33.3738839,93.2214938 33.0471344,93.1570132 32.7322865,93.0193088 C32.3200629,92.8444461 22.5954805,88.619326 13.8240976,80.8838371 C1.80036772,70.2805998 -2.48848904,58.2522315 1.40653728,46.0828801 C5.39677536,33.6129835 16.1329826,28.8982478 24.7626298,25.1157489 C27.9305846,23.7266833 30.9200173,22.4119343 33.2483775,20.8807928 C35.6925065,19.2797061 38.1463731,16.8961089 40.7517129,14.376993 C49.0275619,6.35079487 59.3374802,-3.63058691 78.0866221,2.43168449 C97.534705,8.73111344 100.903903,45.386708 101.035901,46.9451718 C101.150588,48.3101938 100.15411,49.5058176 98.8049163,49.6216641 C97.4189361,49.734232 96.2709853,48.7342359 96.1487248,47.3735855 C96.1270857,47.0238601 92.9504754,12.4425744 76.588119,7.14969885 C60.6239208,1.97922724 52.2463684,10.0994141 44.1457956,17.9507496 C41.3695073,20.6381708 38.753348,23.1747729 35.9175524,25.0294104 C33.2527053,26.7845948 30.0771769,28.1813107 26.7155528,29.6578077 C18.1951827,33.3922193 9.39134124,37.2610567 6.06758545,47.6063714 C2.7719604,57.8850198 6.47223541,67.8259646 17.0515597,77.1505184 C25.2386886,84.3745339 34.558621,88.4204197 34.6559967,88.4641354 C35.8969954,88.9952808 36.4790854,90.4510129 35.9532569,91.7078386 C35.5507708,92.65319 34.6451772,93.2214938 33.6908957,93.2214938 Z"></path>
                    <path d="M19.2360203,51.6708364 C18.9384835,51.6708364 18.6463566,51.6183776 18.3488198,51.503624 C17.0905099,51.0074511 16.4597321,49.5746698 16.954184,48.2992649 C17.111067,47.8970807 20.8524562,38.4413799 32.0095427,35.1965838 C40.9204974,32.5987798 45.7881983,27.4425158 50.4838689,22.4534642 L51.3515942,21.5430853 C56.9506946,15.6261685 64.6509452,14.3190698 64.9863503,14.2666109 C66.314987,14.0524041 67.5700511,14.9671547 67.7842775,16.3179691 C67.9963401,17.6655048 67.0972382,18.9387238 65.7610277,19.1529307 C65.7069301,19.1638596 59.3309884,20.281888 54.8841667,24.9671156 L54.0326707,25.8676585 C49.1184458,31.0774743 43.5463943,36.9812763 33.3663102,39.9517565 C24.512699,42.5287956 21.5535609,50.0151052 21.5243482,50.0905148 C21.1532388,51.0697459 20.2216783,51.6708364 19.2360203,51.6708364 Z"></path>
                </g>
            </g>
        </g>
    </g>
</svg>