<?xml version="1.0" encoding="UTF-8"?>
<svg
  viewBox="0 0 378 382"
  version="1.1"
  xmlns="http://www.w3.org/2000/svg"
  xlink="http://www.w3.org/1999/xlink"
>
  <title>TheYorkshireDev Logo</title>
  <desc>Created with Sketch.</desc>
  <g
    id="RoundLogo_WhiteTextNoBackground"
    stroke="none"
    strokeWidth="1"
    fill="none"
    fillRule="evenodd"
  >
    <g id="rounded-logo-white" fill='#ffffff' fillRule="nonzero">
      <g>
        <polygon
          points="7.24462676 149.015037 20.3976368 151.84515 19.1248695 157.719772 5.97278611 154.889659 4.88349745 159.928415 0.236298264 158.928519 3.69181287 142.950047 8.33993871 143.950868"
        ></polygon>
        <polygon
          points="31.1339179 120.303137 25.1055322 117.702205 22.8676486 122.859248 28.8978876 125.460642 26.5071052 130.973933 9.80128131 123.767657 12.1920637 118.254366 18.6745128 121.049824 20.910543 115.892319 14.428094 113.09686 16.8207297 107.583569 33.5265536 114.789845"
        ></polygon>
        <polygon
          points="34.4944498 86.6790838 36.328773 87.9483606 41.1816907 80.9694175 44.9360531 83.5657285 40.0835988 90.5446716 41.9401618 91.8278102 47.4139416 83.9557065 51.168304 86.5520175 42.2635661 99.3598383 27.3082027 89.0189519 36.0799649 76.4024237 39.8352539 78.9991967"
        ></polygon>
        <polygon
          points="70.445609 65.4858115 66.1306174 69.6780752 62.2710791 65.7270064 48.6677124 61.2995545 52.9641708 57.1257732 60.4779922 59.5867008 58.1163996 52.1207472 62.4137847 47.9469659 66.4957213 61.4418688"
        ></polygon>
        <path
          d="M98.7101246,33.1333458 C101.637906,37.6582922 100.256257,43.2607608 95.3912923,46.3912123 C90.5267914,49.5212018 84.8533164,48.4889614 81.9107081,43.940912 C78.9838529,39.4155036 80.4211023,33.9003642 85.2860666,30.7703747 C90.1505675,27.6403853 95.7957794,28.6291921 98.7101246,33.1333458 Z M87.1176098,40.6224024 C88.4686799,42.7113723 90.996608,43.2732364 92.7405818,42.1504324 C94.4859457,41.0276284 94.8825561,38.584259 93.5310227,36.495289 C92.1799526,34.4067811 89.8132633,33.8037938 88.0678995,34.9275219 C86.2998325,36.0637257 85.7665397,38.5334324 87.1176098,40.6224024 Z"
        ></path>
        <path
          d="M124.70247,25.9279936 L122.597099,26.7435282 L124.310493,31.1367877 L118.694471,33.314011 L112.097116,16.3943248 L120.301763,13.2121226 C124.901239,11.429498 128.396136,12.6026665 129.901959,16.4650199 C130.862905,18.9268716 130.633093,21.1276599 129.304726,22.8654648 L134.790089,27.0734385 L128.448956,29.532518 L124.70247,25.9279936 Z M123.530246,21.4917626 C124.74,21.0223104 125.150974,20.0025456 124.642237,18.6990764 C124.152961,17.4431993 123.169312,16.9913054 121.95863,17.4607576 L119.369079,18.4648124 L120.941158,22.4962795 L123.530246,21.4917626 Z"
        ></path>
        <polygon
          points="157.519666 15.1975913 156.112069 17.4344202 156.836254 21.6470145 150.897754 22.6626208 147.82078 4.7675275 153.761133 3.75192124 154.828182 9.95506688 159.109814 2.83704389 165.945321 1.66942013 160.782435 9.96245982 169.405468 19.4979769 162.313741 20.7108825"
        ></polygon>
        <path
          d="M202.071618,2.69334346 L199.782769,7.19657306 C197.963272,6.14307794 195.160126,4.96297857 193.577391,4.92508971 C192.902782,4.9093797 192.456596,5.10575488 192.443622,5.6500607 C192.38895,7.92755082 201.84505,6.72804497 201.687518,13.3036104 C201.591609,17.3410842 197.991535,19.0423865 193.890139,18.9448919 C190.724205,18.8700383 187.219114,17.7232072 184.849182,15.8278401 L187.188998,11.3777474 C189.020541,12.9755483 192.209641,14.3201408 194.052767,14.3640364 C194.934484,14.3852911 195.51133,14.1140623 195.527546,13.4676414 C195.584073,11.1116012 186.125656,12.4409457 186.278091,6.07330699 C186.363807,2.44798999 189.481554,0.243505233 194.20613,0.356247694 C197.087115,0.424632465 200.051963,1.35013717 202.071618,2.69334346 Z"
        ></path>
        <polygon
          points="229.582296 23.4365701 231.009352 17.0407457 225.509163 15.819061 224.08118 22.2148854 218.200133 20.9095679 222.156971 3.18728481 228.036628 4.49445048 226.502542 11.3694303 232.001805 12.5920391 233.538207 5.71521106 239.419254 7.02052848 235.46149 24.7428116"
        ></polygon>
        <polygon
          points="252.543074 30.6641011 259.516653 13.8973565 265.081245 16.1993358 258.10674 32.9651562"
        ></polygon>
        <path
          d="M283.901707,41.3122569 L281.991398,40.1099787 L279.47042,44.0980122 L274.37379,40.892245 L284.085649,25.5338571 L291.532288,30.2177518 C295.706427,32.8431726 296.840195,36.3432715 294.623625,39.8484531 C293.210469,42.0829717 291.301086,43.2085481 289.109535,43.1785142 L288.98351,50.0802935 L283.225709,46.4605212 L283.901707,41.3122569 Z M286.781303,37.7317596 C287.878931,38.4234623 288.945053,38.1448406 289.693794,36.9619689 C290.414736,35.8225307 290.192801,34.7648771 289.093319,34.0731744 L286.744236,32.5955088 L284.430366,36.2540941 L286.781303,37.7317596 Z"
        ></path>
        <polygon
          points="315.903905 54.692107 314.3726 56.3116247 320.568711 62.1395783 317.431504 65.4557776 311.23632 59.6278241 309.686018 61.2667483 316.676276 67.8404655 313.541849 71.1557407 302.168489 60.460917 314.656158 47.253877 325.858549 57.7892903 322.722732 61.1050276"
        ></polygon>
        <path
          d="M344.614144,80.3049762 C348.098849,85.1746188 347.46455,90.3981988 342.96191,93.6011937 C338.458343,96.8046505 333.233835,95.6550471 329.659244,90.6588003 L325.074131,84.2495762 L339.892812,73.7053837 L344.614144,80.3049762 Z M332.378527,86.4332683 L333.691141,88.2676436 C334.957422,90.0387167 337.167042,90.1842654 339.345156,88.6349807 C341.543193,87.0709101 342.089923,84.8035852 340.733293,82.906832 L339.587015,81.3039484 L332.378527,86.4332683 Z"
        ></path>
        <polygon
          points="358.695204 113.438322 356.658406 114.352737 360.157473 122.098699 355.989821 123.970501 352.49168 116.225001 350.432178 117.150506 354.378359 125.888509 350.210706 127.760311 343.789417 113.544134 360.388675 106.087883 366.714518 120.090589 362.545939 121.962853"
        ></polygon>
        <polygon
          points="357.055016 149.555647 373.25303 138.791514 374.69167 145.050107 363.890059 151.368305 376.366608 152.344174 377.739917 158.326456 358.446396 155.613706"
        ></polygon>
      </g>
      <g transform="translate(2.000000, 188.000000)">
        <path
          d="M4.65073723,8.17794038 C2.26832427,8.38361647 0.494848088,6.89431782 0.28985947,4.51560909 C0.088117279,2.18600321 1.57869062,0.41644774 3.96017603,0.209845191 C6.2920375,0.00833821949 8.06458613,1.4981001 8.26540077,3.82677951 C8.47224449,6.20595147 6.98167115,7.97689665 4.65073723,8.17794038 Z"
        ></path>
        <path
          d="M15.8411679,53.5605529 L13.5923222,53.1385464 C14.0969095,51.4458878 14.0820687,49.887104 13.8167893,48.8684515 C13.4698855,47.5403584 12.7436136,46.8038157 11.8383245,47.0386756 C8.8901059,47.8053285 12.3651731,54.6695361 7.50480952,55.9128573 C5.09596138,56.5391502 3.06091601,54.8071167 2.2882666,51.8438062 C1.73730172,49.7268249 2.08327799,47.4995938 2.99459616,45.7833103 L5.21376027,46.2539565 C4.30383342,47.9697767 4.06174279,49.8820084 4.43740066,51.3268366 C4.84830545,52.9036865 5.69191245,53.6921115 6.73216012,53.4211194 C9.73788688,52.6401061 6.16635443,45.8009132 10.9641084,44.5538862 C13.2760275,43.9526079 15.2382602,45.5595681 16.0002428,48.4844302 C16.4565975,50.236846 16.3452915,52.0948792 15.8411679,53.5605529 Z"
        ></path>
        <path
          d="M21.9764494,84.9785007 C18.3385971,86.5961153 14.2077518,84.9053097 12.5159,81.1077139 C10.8249758,77.3110447 12.3336364,73.1132144 15.9714887,71.4974527 C19.6288196,69.8719632 23.7040118,71.5863937 25.3958636,75.3844527 C27.0867878,79.181122 25.6147655,83.3618126 21.9764494,84.9785007 Z M16.9407788,73.6774339 C14.413668,74.8017038 13.3428111,77.7798379 14.4521613,80.2687964 C15.5610477,82.7586814 18.4684541,83.9042601 20.99742,82.7799902 C23.5254584,81.6566467 24.5837933,78.7484611 23.4753707,76.2590393 C22.3581363,73.7515514 19.471136,72.553164 16.9407788,73.6774339 Z"
        ></path>
        <polygon
          points="36.269072 100.085038 32.9025282 102.283549 36.3669286 107.578781 34.6166412 108.722507 31.1513132 103.426348 26.3660812 106.549938 25.0800327 104.585361 36.751862 96.9665442 41.8719397 104.793353 40.095217 105.929667"
        ></polygon>
        <polygon
          points="53.7626708 123.017921 44.9096669 130.852605 43.3518462 129.095557 52.2043863 121.2618 49.2853855 117.971446 50.8659312 116.572941 58.2738117 124.924131 56.6941935 126.322636"
        ></polygon>
        <polygon
          points="70.766523 154.833787 74.9636881 144.285013 65.5685311 150.691082 63.6679805 149.178158 68.7500286 135.41639 70.7257108 136.991387 66.3073249 147.946881 75.9918776 141.211916 77.8084849 142.634972 73.390099 153.590003 83.0857824 146.838825 84.9844778 148.352212 72.6508414 156.333277"
        ></polygon>
        <path
          d="M94.5679276,166.834338 L91.8965827,168.96429 L89.7414196,167.797403 L101.795863,158.481295 L103.914852,159.6278 L102.63205,174.774176 L100.423553,173.579495 L100.750514,170.180744 L94.5679276,166.834338 Z M101.598295,161.225959 L96.3349109,165.414525 L100.959213,167.916917 L101.598295,161.225959 Z"
        ></path>
        <path
          d="M127.109175,180.182438 C126.913926,180.136578 126.707082,180.06524 126.500238,179.994365 L123.374394,178.921051 L122.007648,182.88819 L119.785238,182.124317 L124.321423,168.961047 L129.666895,170.799625 C133.037613,171.958174 134.412242,174.259986 133.429503,177.118142 C132.704622,179.224932 131.212194,180.372827 129.228627,180.448798 L130.669577,185.864471 L128.144785,184.99776 L127.109175,180.182438 Z M127.186162,178.000604 C129.220279,178.700088 130.684881,178.235464 131.300311,176.449232 C131.89719,174.719514 131.015089,173.49009 128.980971,172.791533 L125.856054,171.717292 L124.061245,176.926826 L127.186162,178.000604 Z"
        ></path>
        <polygon
          points="154.063323 179.369462 153.428415 183.075337 160.139705 184.225548 159.782598 186.304081 153.071308 185.15248 152.419704 188.937105 160.152691 190.263345 159.794656 192.340488 149.745576 190.616793 152.103873 176.893474 161.91921 178.577794 161.561176 180.654937"
        ></polygon>
        <path
          d="M204.45574,179.3778 C208.617658,178.962742 211.921128,181.573531 212.32183,185.592089 C212.721141,189.592119 209.980693,192.823642 205.779354,193.242406 L200.149588,193.802456 L198.767538,179.943872 L204.45574,179.3778 Z M202.278779,191.471461 L205.68799,191.132373 C208.383915,190.86416 210.245973,188.659165 209.965852,185.847795 C209.682022,183.016506 207.360827,181.207576 204.625482,181.480421 L201.314591,181.80978 L202.278779,191.471461 Z"
        ></path>
        <polygon
          points="231.15342 176.851782 232.130131 180.481687 238.705535 178.716301 239.253717 180.751753 232.677385 182.517139 233.67543 186.223941 241.249805 184.190342 241.797988 186.226721 231.953432 188.868546 228.335986 175.42502 237.950045 172.845268 238.498227 174.88072"
        ></polygon>
        <polygon
          points="263.674262 178.081207 252.90262 167.651947 255.208046 166.618471 263.769799 175.183212 263.09176 163.085382 265.326229 162.084333 265.890643 177.088032"
        ></polygon>
        <polygon
          points="282.733101 154.55492 284.795046 157.699356 290.492523 153.972171 291.648715 155.735705 285.952165 159.463815 288.058168 162.67542 294.620586 158.381237 295.777705 160.14477 287.24888 165.724892 279.61004 154.077326 287.938977 148.627373 289.095169 150.391833"
        ></polygon>
        <polygon
          points="315.893952 141.10213 317.312177 142.69056 311.05585 148.260028 301.783593 137.869217 303.537591 136.308117 311.392087 145.111424"
        ></polygon>
        <path
          d="M333.71544,114.178482 C336.798617,116.698477 337.143666,121.145528 334.508959,124.362691 C331.872861,127.580317 327.440562,128.122301 324.356921,125.603233 C321.259367,123.071656 320.958841,118.662591 323.594939,115.444502 C326.231501,112.227802 330.631799,111.660803 333.71544,114.178482 Z M325.871611,123.75539 C328.014252,125.507343 331.158648,125.122395 332.888065,123.012362 C334.615628,120.903719 334.332261,117.793564 332.18962,116.042074 C330.046515,114.291975 326.968439,114.655614 325.242268,116.765183 C323.50172,118.889113 323.728506,122.005754 325.871611,123.75539 Z"
        ></path>
        <path
          d="M340.600182,90.8059897 C342.341658,87.7685616 344.845116,86.8856368 347.472403,88.3892957 C350.203111,89.9522487 350.792569,92.6056554 349.049238,95.6430835 L347.454315,98.42249 L351.100979,100.508898 L349.931802,102.545739 L337.836546,95.6217747 L340.600182,90.8059897 Z M345.622867,97.3737272 L347.168166,94.6809456 C348.238095,92.81828 348.04702,91.3099887 346.404792,90.3700861 C344.815898,89.458904 343.451008,90.0768587 342.38247,91.9413772 L340.837171,94.6336957 L345.622867,97.3737272 Z"
        ></path>
        <polygon
          points="353.2362 69.3429495 356.756254 70.6779911 359.174841 64.3173193 361.148204 65.0659061 358.729617 71.4265779 362.322019 72.7898768 365.10838 65.4619715 367.083599 66.2105583 363.462442 75.732805 350.428505 70.7882409 353.964327 61.4897364 355.938618 62.2383232"
        ></polygon>
        <path
          d="M369.658478,40.4144234 C369.638072,40.6145407 369.59355,40.8280917 369.550419,41.042106 L368.886756,44.2764087 L373.002761,45.116716 L372.530174,47.4162116 L358.878952,44.6252243 L360.012419,39.0923524 C360.726633,35.6060502 362.834027,33.945818 365.799405,34.5512654 C367.983786,34.9982866 369.317604,36.3259165 369.648275,38.2821554 L374.837455,36.1568359 L374.30365,38.7666986 L369.658478,40.4144234 Z M367.482909,40.6196363 C367.91422,38.516552 367.263543,37.1249958 365.411689,36.7460701 C363.616879,36.3796516 362.511239,37.4122012 362.080392,39.5162119 L361.416266,42.7491249 L366.819247,43.853939 L367.482909,40.6196363 Z"
        ></path>
        <path
          d="M370.06289,0.201970205 C372.450405,0.328433201 373.99895,2.04656965 373.874658,4.43222689 C373.75083,6.76507541 372.028833,8.31181513 369.640855,8.1862786 C367.304819,8.06259501 365.756738,6.34445856 365.879638,4.01068358 C366.004858,1.62641604 367.725463,0.0792130852 370.06289,0.201970205 Z"
        ></path>
      </g>
      <g transform="translate(86.000000, 90.000000)">
        <g transform="translate(43.016979, 33.823085)">
          <g transform="translate(54.580683, 0.000000)">
            <path d="M11.7255958,20.9444431 C11.4355781,20.9444431 11.1506484,20.8266803 10.9443519,20.5964053 L6.55939541,15.7101279 L1.86961965,20.6214251 C1.47460352,21.0388854 0.807146534,21.0541753 0.389003,20.6529316 C-0.0272903413,20.2530778 -0.0453297194,19.5895894 0.355699533,19.1693491 L5.82301875,13.4412012 C6.0242272,13.2327028 6.2999059,13.1182603 6.58298537,13.1182603 L6.60009965,13.1182603 C6.89011735,13.1224302 7.1644084,13.2461393 7.36330411,13.4643677 L12.501289,19.1943689 C12.8893669,19.6261924 12.8551384,20.2878276 12.4231184,20.6765614 C12.2209849,20.8549434 11.9712089,20.9444431 11.7255958,20.9444431 Z"></path>
            <path d="M6.74672742,35.5063624 C6.16992987,35.5063624 5.70229368,35.0444225 5.69628055,34.4675767 L5.37064665,1.2741573 C5.36648372,0.695458223 5.83041952,0.220545046 6.40675452,0.215911747 L6.41600549,0.215911747 C6.9904903,0.215911747 7.46043922,0.676925026 7.46413961,1.25377079 L7.79209871,34.4476535 C7.79486154,35.0268159 7.33370103,35.5021924 6.75366564,35.5063624 L6.74672742,35.5063624 Z"></path>
          </g>
          <g transform="translate(87.421602, 44.479673)">
            <path d="M16.6924379,12.4153888 C16.4926171,12.4153888 16.2909461,12.3579359 16.11194,12.2397867 C15.631815,11.9191624 15.5004513,11.2681839 15.8219223,10.7844674 L19.4575508,5.31393095 L13.5429475,1.98861205 C13.0373824,1.70505414 12.8569886,1.06380552 13.1414557,0.559702554 C13.4254603,0.0537462717 14.0628516,-0.12741573 14.5693418,0.157068846 L21.4682476,4.03838366 C21.7221865,4.18294259 21.9062807,4.42526415 21.9761255,4.70882206 C22.0436575,4.99145332 21.9900019,5.29354443 21.8281101,5.534476 L17.5652663,11.9478889 C17.365908,12.2518333 17.0305606,12.4153888 16.6924379,12.4153888 Z"></path>
            <path d="M1.37423057,11.2088776 C0.912144966,11.2088776 0.487988306,10.8989099 0.363562851,10.43002 C0.214622345,9.86939081 0.546269373,9.29439837 1.10410245,9.14520613 L33.1198357,0.573602451 C33.679519,0.422556895 34.2544663,0.755691113 34.4024817,1.31539367 C34.553735,1.87509622 34.2197752,2.45101532 33.6591668,2.60206088 L1.64482125,11.1732012 C1.55554945,11.1963677 1.46489001,11.2088776 1.37423057,11.2088776 Z"></path>
          </g>
          <g transform="translate(75.857898, 85.716037)">
            <path d="M12.4915755,18.9914304 C12.4106296,18.9914304 12.3218204,18.9821638 12.2357864,18.959924 L4.7804352,17.0811211 C4.21982684,16.9370255 3.8775412,16.3675931 4.01954348,15.8055739 C4.16154577,15.2430913 4.72909236,14.9016172 5.29155092,15.0443228 L11.6520506,16.648371 L12.803333,9.95418018 C12.9060187,9.38289438 13.4453498,8.99786721 14.0165968,9.09701982 C14.5869187,9.19524576 14.9699086,9.73826844 14.8709232,10.3095542 L13.5276834,18.1199068 C13.4772656,18.4099514 13.3112109,18.6624662 13.0665229,18.822315 C12.894455,18.9339775 12.6960218,18.9914304 12.4915755,18.9914304 Z"></path>
            <path d="M19.8183383,29.6058558 C19.483916,29.6058558 19.1550443,29.4460069 18.9533733,29.1513291 L0.191032389,1.78984351 C-0.137839351,1.31215036 -0.0143389929,0.658855158 0.460697964,0.330354239 C0.940360403,0.000926659857 1.59070311,0.124635751 1.92049995,0.601402247 L20.6809906,27.9647412 C21.0080122,28.440581 20.8882122,29.0943395 20.4094749,29.4219138 C20.228156,29.5465495 20.0227846,29.6058558 19.8183383,29.6058558 Z"></path>
          </g>
          <g transform="translate(22.664860, 85.716037)">
            <path d="M8.60154553,18.9914304 C8.39894943,18.9914304 8.19959118,18.9339775 8.02659817,18.8227783 C7.78514803,18.6629295 7.61863069,18.4104147 7.56913804,18.1203702 L6.22081016,10.3100176 C6.1232125,9.73873177 6.50759002,9.19570909 7.07606171,9.09748315 C7.65100906,8.99786721 8.18941512,9.38289438 8.28747533,9.95464351 L9.44384572,16.6488343 L15.8024952,15.0447861 C16.3621785,14.9034705 16.9329629,15.2435546 17.073115,15.8060372 C17.2141922,16.3680564 16.8746819,16.9374889 16.3149986,17.0815845 L8.85594701,18.9603873 C8.77176325,18.9826272 8.68526674,18.9914304 8.60154553,18.9914304 Z"></path>
            <path d="M1.27478272,29.6058558 C1.07126153,29.6058558 0.867740342,29.5460862 0.682258532,29.4214505 C0.208146671,29.0938762 0.0846463127,28.440581 0.4139806,27.9642778 L19.1786342,0.600938917 C19.5042681,0.122319101 20.1583112,0.0032433095 20.6370486,0.329890909 C21.1111604,0.658391828 21.2332731,1.31168703 20.9062516,1.78938018 L2.13789758,29.1508658 C1.93807678,29.4464703 1.60920504,29.6058558 1.27478272,29.6058558 Z"></path>
          </g>
          <g transform="translate(0.000000, 43.553013)">
            <path d="M17.7035682,12.7137732 C17.3640578,12.7137732 17.0282479,12.5469745 16.8247267,12.2379334 L12.6252519,5.78652748 C12.4628975,5.54188927 12.4134049,5.24257814 12.4832497,4.95902022 C12.5554072,4.67453565 12.7390388,4.43360409 12.9980658,4.29228846 L19.9298124,0.476303166 C20.4376903,0.19645189 21.0741566,0.381783861 21.3553859,0.889593463 C21.6343024,1.39740306 21.4455827,2.03679837 20.9404802,2.31525965 L14.9953487,5.58729561 L18.581022,11.0911918 C18.8987926,11.5776883 18.7609532,12.2263502 18.2762028,12.5441945 C18.0985843,12.6581736 17.9006137,12.7137732 17.7035682,12.7137732 Z"></path>
            <path d="M33.0324141,11.6471877 C32.9389794,11.6471877 32.8483199,11.6351412 32.753035,11.6078047 L0.817785142,2.74430317 C0.258101872,2.58908764 -0.0666069346,2.01038856 0.0860339572,1.45392932 C0.243762879,0.894226762 0.817785142,0.566189173 1.37700586,0.721404699 L33.3136434,9.58397957 C33.8700888,9.73826844 34.1989605,10.3178942 34.0435444,10.8762067 C33.9177313,11.3418533 33.4935746,11.6471877 33.0324141,11.6471877 Z"></path>
          </g>
        </g>
        <g transform="translate(59.206164, 0.000000)">
          <path d="M10.5252833,53.2412421 C10.1825351,53.2412421 9.84811281,53.0744433 9.64829201,52.7677189 C9.43829514,52.4489479 4.46127697,44.8438505 1.80486291,35.1829581 C-1.7701718,22.1712637 0.716024547,11.7986966 8.99563656,5.18744188 C17.4741443,-1.58551502 26.8615591,0.0745961185 35.1481094,1.53825536 C38.1648484,2.07340143 41.0178455,2.57796772 43.5364202,2.59557426 C43.5873005,2.59789091 43.6363306,2.59789091 43.6844356,2.59789091 C46.2932072,2.59789091 49.216049,2.0636715 52.3081834,1.50118897 C61.8857056,-0.246028192 73.8060341,-2.41997222 84.1629499,10.5120294 C88.7051728,16.1808711 89.2824329,25.0151828 85.8850167,36.7698631 C83.3960451,45.3780699 79.6887216,52.2589826 79.5309927,52.5494905 C79.2548514,53.0563734 78.6225481,53.248192 78.1123575,52.9692674 C77.6035545,52.6917328 77.4134472,52.0560441 77.6891259,51.5473079 C77.8408417,51.2725532 92.3768801,24.1204927 82.5269171,11.8255698 C72.9540204,-0.12973238 62.1849742,1.83339653 52.6842351,3.56717712 C49.4334466,4.15792278 46.3422373,4.72225863 43.520231,4.69584883 C40.8286633,4.67453565 37.8924076,4.1551428 34.7826963,3.60517017 C26.9364919,2.2184237 18.0416909,0.64634525 10.3004849,6.82855649 C-8.10615645,21.5295518 11.2015287,51.3123996 11.3962615,51.6126374 C11.7172699,52.0968172 11.5803557,52.7477957 11.1002307,53.0665667 C10.9221496,53.1837892 10.7200161,53.2412421 10.5252833,53.2412421 Z"></path>
          <path d="M19.8215762,16.2401773 C19.4917793,16.2401773 19.1679956,16.0863518 18.9653995,15.7967706 C18.6337525,15.3223207 18.7433764,14.6694889 19.2151755,14.3358913 C19.4996427,14.1320261 26.307889,9.40976752 35.4792938,12.2870464 C43.4952534,14.8043179 49.6485315,13.3930149 55.5996761,12.0298983 L56.6575237,11.7885034 C63.2104435,10.3030676 69.1190336,12.9333916 69.3688096,13.0450541 C69.8961145,13.2845957 70.1329392,13.9063845 69.8887138,14.4350439 C69.6542019,14.9613867 69.0283742,15.1944417 68.5038446,14.9576801 C68.4543519,14.9331236 62.9666806,12.5085181 57.1186843,13.834105 L56.0682374,14.0745732 C50.1355947,15.4339832 43.4110696,16.9759453 34.8506909,14.2909483 C26.7093808,11.7315138 20.4890332,16.0052691 20.4242764,16.0492854 C20.2406448,16.1790178 20.0306479,16.2401773 19.8215762,16.2401773 Z"></path>
        </g>
        <g transform="translate(0.000000, 31.506435)">
          <path d="M38.2744723,88.3584074 C35.3497803,88.3584074 32.0735518,88.2073618 28.6835363,87.7783183 C14.0230725,85.9180486 4.56997579,79.5996184 1.35896649,69.5073659 C-1.93483894,59.1575019 2.95984566,50.9616588 7.2786578,43.732322 C8.85317172,41.0959747 10.3425768,38.6074296 11.2556469,36.2574202 C12.2186721,33.7906517 12.7741925,30.8119036 13.360241,27.6580168 C15.1470645,18.0712572 17.3654455,6.14004821 33.1193731,1.0573189 C40.0289175,-1.16990807 48.4736592,1.43539612 58.2274122,8.8041953 C65.3691557,14.2001356 70.4641237,20.1265888 70.6778209,20.3763236 C71.0561853,20.815097 71.0034548,21.4785855 70.5649592,21.8548094 C70.1241508,22.2342766 69.4631695,22.1805303 69.0866553,21.7417569 C68.8854468,21.505922 48.7391618,-1.78057692 33.7632402,3.05473422 C19.1989864,7.75428968 17.1901397,18.5331971 15.4199679,28.0421173 C14.8131047,31.2974733 14.2418578,34.3712041 13.2094503,37.0214513 C12.2316235,39.5340895 10.6964261,42.0967673 9.07611994,44.8100274 C4.98534404,51.659897 0.347373666,59.42299 3.35486178,68.8698239 C10.5289837,91.4117516 49.076822,85.5645279 49.4635123,85.504295 C50.0393847,85.4107023 50.5745529,85.8031428 50.6610494,86.3758186 C50.752634,86.9480311 50.3645561,87.4868838 49.792384,87.5772331 C49.5083794,87.6198594 44.764023,88.3584074 38.2744723,88.3584074 Z"></path>
          <path d="M14.5476021,63.9918864 C14.0813535,63.9918864 13.6562718,63.6768221 13.5346216,63.2032989 C13.4458124,62.8646047 11.4716568,54.8045173 17.4228014,47.2517761 C22.6264682,40.648398 23.5034595,34.387884 24.3545481,28.3326251 L24.507189,27.2530664 C25.4577255,20.5908454 30.0152125,15.9964658 30.2108703,15.8037205 C30.6216131,15.3978435 31.2872199,15.3992335 31.6928746,15.8111338 C32.1008421,16.2234974 32.0957541,16.8874492 31.6863989,17.2965696 C31.6443071,17.3359526 27.4295683,21.6036846 26.5807924,27.5509875 L26.4300017,28.623133 C25.5812258,34.660322 24.6246762,41.5032417 19.0671601,48.5528065 C13.777922,55.2636772 15.5448559,62.6097732 15.5642829,62.6834427 C15.7062852,63.2449986 15.3677,63.815821 14.8084792,63.9585267 C14.7215202,63.9807665 14.6368739,63.9918864 14.5476021,63.9918864 Z"></path>
        </g>
        <g transform="translate(136.451706, 31.506435)">
          <path d="M38.6551495,87.1945226 C31.230789,87.1945226 25.4540251,85.9263886 25.1542939,85.8596691 C24.5899851,85.7336433 24.2356732,85.1730141 24.3582485,84.6077516 C24.4859118,84.0415624 25.0483703,83.6838717 25.6080536,83.8117508 C25.9582026,83.8886635 60.6192487,91.3371555 67.7720934,68.8693606 C70.7777313,59.4220633 66.1416112,51.6589704 62.0522229,44.809564 C60.4286789,42.096304 58.8994947,39.5336261 57.9193551,37.0209879 C56.88556,34.3707408 56.3120003,31.29701 55.7065247,28.0416539 C53.9354278,18.5327338 51.9288939,7.75382635 37.3627899,3.05427089 C22.3854806,-1.77733361 2.24104582,21.5054586 2.04215011,21.7412936 C1.66517337,22.180067 1.0037295,22.2338133 0.5647713,21.8543461 C0.123962906,21.4781222 0.0712324162,20.8146337 0.44913426,20.3758603 C0.662368961,20.1256621 5.75872455,14.1996723 12.8963052,8.80373197 C22.653296,1.43493279 31.1003504,-1.17129806 38.0085072,1.05685557 C53.7578094,6.13958488 55.9817409,18.0707939 57.7685644,27.6575534 C58.3532253,30.8114402 58.9082831,33.7901884 59.8713083,36.2569569 C60.7871537,38.6069663 62.2747086,41.0955113 63.849685,43.7318586 C68.1698848,50.9616588 73.0631818,59.1570386 69.7684513,69.5069026 C66.5509663,79.613055 57.7634764,85.6372707 44.3523551,86.9299612 C42.3943888,87.1194631 40.4752765,87.1945226 38.6551495,87.1945226 Z"></path>
          <path d="M56.5779655,63.9918864 C56.4905439,63.9918864 56.4021972,63.9807665 56.3184759,63.9594533 C55.757405,63.8153577 55.4174321,63.2440719 55.5608221,62.6834427 C55.5927379,62.5606603 57.3286811,55.2419007 52.0579449,48.5528065 C46.5045917,41.5032417 45.5424915,34.6607853 44.6988037,28.623133 L44.548013,27.5509875 C43.6946116,21.5763481 39.4840358,17.3373426 39.4405562,17.2965696 C39.0307386,16.8874492 39.0270382,16.2234974 39.4363933,15.8111338 C39.8415855,15.3996968 40.5039545,15.3950635 40.9183976,15.8037205 C41.10943,15.9964658 45.6687672,20.5908454 46.6225415,27.2530664 L46.7733322,28.3326251 C47.6225706,34.3874206 48.4995619,40.648398 53.7055414,47.2517761 C59.6552984,54.8045173 57.6797552,62.8646047 57.591871,63.2032989 C57.471146,63.6777487 57.0460642,63.9918864 56.5779655,63.9918864 Z"></path>
        </g>
        <g transform="translate(105.460980, 115.369152)">
          <path d="M29.0151833,79.1501884 C26.4873577,79.1501884 23.7375089,78.7785978 20.7147567,77.9288507 C13.7265791,75.9698917 8.11725761,69.1274353 4.04220834,57.5895935 C1.06154802,49.1426255 0.0744702533,41.3837026 0.0342285636,41.057055 C-0.0365413044,40.4829892 0.372351266,39.957573 0.94868627,39.8866836 C1.51715795,39.8134774 2.04723814,40.2216711 2.11569527,40.7985169 C2.15362422,41.1066313 6.12645034,71.6604601 21.2790654,75.9082688 C36.0139995,80.0397818 43.6275422,72.161783 50.3386534,65.2104441 C52.6412181,62.8321716 54.8114941,60.5836315 57.1344109,58.9457602 C59.3324397,57.3912883 62.0221573,56.1009144 64.8705288,54.7336278 C72.0543642,51.2822831 80.1984496,47.3731685 82.8937178,37.8308887 C89.3157364,15.1240155 56.2981238,2.19479387 55.9655517,2.06737814 C55.4252955,1.85887967 55.1560924,1.25191747 55.3614638,0.71074811 C55.5696105,0.169115424 56.1736984,-0.101932584 56.7148797,0.104712564 C57.072892,0.242321553 65.5412236,3.52223412 73.3143454,9.82537446 C83.7859732,18.3149687 87.7967282,28.1973328 84.9118154,38.4026378 C81.9570577,48.8558243 73.3592126,52.9850206 65.775273,56.6249406 C63.0096976,57.9533075 60.4004634,59.2080049 58.3425867,60.6610076 C56.1764737,62.1862897 54.0751174,64.3630137 51.8456353,66.6703967 C46.3644396,72.3480417 39.7865423,79.1501884 29.0151833,79.1501884 Z"></path>
          <path d="M31.0605713,67.2602157 C30.5702702,67.2602157 30.1317746,66.9131816 30.0314016,66.4164919 C29.9176148,65.8470594 30.2899661,65.2938435 30.8565876,65.1817177 C30.909318,65.1692078 36.7781291,63.9413835 40.7648316,59.4507898 L41.4771558,58.6418157 C45.5110383,54.0761626 50.0805515,48.8970607 58.5993009,46.0883546 C66.7054574,43.4158676 69.2781502,36.3125565 69.3040529,36.2412037 C69.4941602,35.695401 70.0940852,35.4085998 70.6389669,35.5962484 C71.1856988,35.7871403 71.4738663,36.3839093 71.2860718,36.929712 C71.1695096,37.2609928 68.3789566,45.0745888 59.2528815,48.0834533 C51.2753134,50.7142407 47.0911028,55.4503992 43.0465817,60.0322688 L42.3305571,60.8449495 C37.8678925,65.8762492 31.5300577,67.1865463 31.2650176,67.2398292 C31.1951728,67.2532658 31.1267157,67.2602157 31.0605713,67.2602157 Z"></path>
        </g>
        <g transform="translate(21.277215, 116.759142)">
          <path d="M57.6173112,78.3009046 C47.3862085,78.3009046 40.7985976,71.9685745 35.2729974,66.6588135 C32.9602566,64.4380731 30.7788795,62.3396519 28.5595734,60.8959158 C26.4517415,59.5216793 23.7962525,58.3638178 20.9797968,57.1401634 C13.264956,53.7824114 4.52418352,49.9780094 1.18273564,39.6420454 C-2.07961651,29.5502562 1.56017493,19.5251865 11.7107942,10.6524184 C19.2489416,4.06294014 27.590535,0.469353218 27.9397589,0.32108764 C28.474002,0.0931293156 29.0887285,0.341474157 29.3135269,0.874766905 C29.5401755,1.40805965 29.2922497,2.02521512 28.7607819,2.25178345 C28.4332978,2.39402574 -4.07551181,16.5589483 3.17724329,38.9957001 C6.22589819,48.4286341 14.508748,52.0351943 21.8156213,55.2150276 C24.7102476,56.4757483 27.4466825,57.6660429 29.7039175,59.1352621 C32.0869656,60.6874174 34.3381875,62.8516315 36.7226233,65.1446513 C43.6950742,71.8406954 51.5912338,79.4323563 66.1619633,74.7550407 C81.1475985,69.9433593 83.9839438,39.2653581 84.010309,38.9549271 C84.0602642,38.3785446 84.5686046,37.9453312 85.1477149,37.9995408 C85.7212746,38.0500437 86.1491317,38.5597066 86.0982514,39.1360891 C85.9863147,40.456116 83.107415,71.5186811 66.8002797,76.7533826 C63.4366295,77.8320147 60.3912125,78.3009046 57.6173112,78.3009046 Z"></path>
          <path d="M56.0303084,66.4762615 C55.9729525,66.4762615 55.9192969,66.4720915 55.8619409,66.4632883 C55.5941255,66.4192719 49.2132737,65.3461998 44.5651273,60.4826255 L43.8167244,59.6977446 C39.6075361,55.2692372 35.2531078,50.6920008 27.1793297,48.3605246 C17.9501063,45.6931342 14.8755487,37.9893475 14.7460352,37.6626999 C14.5388137,37.1219939 14.801541,36.514105 15.3431849,36.3042165 C15.8792782,36.0947914 16.4884542,36.3625961 16.7012263,36.9009855 C16.7354549,36.9908715 19.5764256,43.9769602 27.763528,46.3441128 C36.37895,48.8335845 41.1367203,53.836621 45.3343449,58.2470586 L46.0795099,59.0310129 C50.2461437,63.3886308 56.1366945,64.3815469 56.1931254,64.3898868 C56.7689979,64.4825528 57.1561507,65.0204789 57.0613283,65.5926913 C56.9776071,66.1088409 56.5349485,66.4762615 56.0303084,66.4762615 Z"></path>
        </g>
        <g transform="translate(36.541304, 7.413279)">
          <path d="M32.6202837,45.320617 C32.2960374,45.320617 31.9731788,45.1695714 31.7678074,44.8836968 L7.9942198,11.7361471 C7.65332181,11.2654039 7.76063298,10.6093287 8.2324321,10.2734145 C8.70330612,9.93379367 9.35827431,10.0422129 9.69454682,10.5111028 L33.4713723,43.6586525 C33.8053321,44.1293957 33.7012587,44.7850076 33.2303847,45.1241651 C33.0444403,45.2580674 32.8321307,45.320617 32.6202837,45.320617 Z"></path>
          <path d="M1.15128236,25.0212061 C1.13324298,25.0212061 1.11751635,25.0212061 1.09808932,25.0193528 C0.518053936,24.9920163 0.073545157,24.4990333 0.103610787,23.9189442 L1.24980512,1.09994525 C1.26923214,0.763567722 1.44453789,0.45452666 1.72669227,0.270584678 C2.01069684,0.0884960163 2.36038324,0.0523562819 2.67630364,0.174212053 L24.7472515,8.80604862 C25.285195,9.01547375 25.5502351,9.6247526 25.342551,10.1663853 C25.1325541,10.7061647 24.5243033,10.973506 23.9812717,10.7617642 L3.26744018,2.66136711 L2.19617865,24.0259734 C2.16703812,24.5866027 1.70634015,25.0212061 1.15128236,25.0212061 Z"></path>
        </g>
        <g transform="translate(136.451706, 7.413279)">
          <path d="M1.24425454,45.320617 C1.0296322,45.320617 0.820097882,45.2580674 0.633228427,45.1237017 C0.164204596,44.7845442 0.0568934233,44.1293957 0.393165933,43.6581892 L24.1649034,10.5106394 C24.507189,10.0408229 25.1593819,9.93379367 25.6321061,10.2729512 C26.1015925,10.6088654 26.2079786,11.2649406 25.8721686,11.7356838 L2.09626825,44.8832335 C1.89135941,45.1700347 1.57127609,45.320617 1.24425454,45.320617 Z"></path>
          <path d="M32.7104806,25.0212061 C32.1549602,25.0212061 31.6947248,24.5866027 31.6683596,24.0259734 L30.5943227,2.66136711 L9.88141628,10.7617642 C9.33930984,10.9739694 8.73105901,10.7061647 8.52106215,10.1663853 C8.31152783,9.62521593 8.58119341,9.01593708 9.11821182,8.80604862 L31.1873095,0.174212053 C31.5013797,0.0523562819 31.8529163,0.0884960163 32.138771,0.270584678 C32.421388,0.45406333 32.5980814,0.763104392 32.613808,1.09994525 L33.7604649,23.9189442 C33.7868301,24.4990333 33.3432464,24.9920163 32.7659863,25.0193528 C32.7493346,25.0212061 32.7299076,25.0212061 32.7104806,25.0212061 Z"></path>
        </g>
        <g transform="translate(160.041662, 112.589173)">
          <path d="M39.7722033,17.4258386 C39.6648921,17.4258386 39.5543431,17.4091587 39.4442566,17.373019 L0.757191333,4.56518979 C0.209534315,4.38310112 -0.0915845351,3.79050215 0.0901968906,3.2386762 C0.274291057,2.68824025 0.86589015,2.38939244 1.4177101,2.57240776 L40.1038503,15.380237 C40.6524324,15.5632523 40.9503134,16.1563146 40.7694571,16.7053606 C40.6223668,17.146914 40.2148619,17.4258386 39.7722033,17.4258386 Z"></path>
          <path d="M29.8408318,28.624523 C29.4074242,28.624523 29.0119455,28.3622782 28.853754,27.9397213 C28.6543958,27.3939187 28.9286868,26.7911265 29.4758813,26.5905046 L49.5056041,19.1744458 L35.5912305,1.79818345 C35.2304429,1.34504678 35.3035255,0.683874974 35.7517347,0.3220143 C36.2054944,-0.0407730337 36.8623128,0.0305797753 37.2291135,0.482789785 L52.049619,18.9965271 C52.2577657,19.2601618 52.3299232,19.6090492 52.2415765,19.9329169 C52.1513796,20.2600278 51.910392,20.5213459 51.5958593,20.6385683 L30.2011568,28.5587301 C30.0790441,28.6041365 29.9587816,28.624523 29.8408318,28.624523 Z"></path>
        </g>
        <g transform="translate(91.584535, 156.142186)">
          <path d="M14.7210576,41.5240915 L14.7108816,41.5240915 C14.1359342,41.5222382 13.6669104,41.0491783 13.670589,40.4695526 L13.9023474,1.06843882 C13.9069729,0.491593054 14.3764593,0.0254831461 14.9518692,0.0254831461 L14.9574198,0.0254831461 C15.53653,0.0282631256 16.0018535,0.500396323 15.9995493,1.07863207 L15.7654914,40.4811359 C15.7650288,41.0575183 15.2978552,41.5240915 14.7210576,41.5240915 Z"></path>
          <path d="M14.8880375,53.4590072 C14.5591658,53.4590072 14.248796,53.3047183 14.0512879,53.0424735 L0.316845488,34.8016376 C-0.0314532747,34.3392343 0.0592061641,33.6808425 0.521291773,33.3310284 C0.984765026,32.9826043 1.63927067,33.0738803 1.98849453,33.5376735 L14.8491835,50.615088 L27.4494578,32.2635162 C27.7806423,31.7867497 28.4314476,31.6653573 28.91111,31.9929316 C29.386147,32.3218958 29.506872,32.975191 29.175225,33.4528842 L15.7516149,53.0040172 C15.5596575,53.2834051 15.2502127,53.4520572 14.9088522,53.4585438 C14.9088522,53.4590072 14.8959008,53.4590072 14.8880375,53.4590072 Z"></path>
        </g>
        <g transform="translate(0.462548, 114.442492)">
          <path d="M12.6918589,17.5926374 C12.2667771,17.5926374 11.8722235,17.3364159 11.713107,16.918029 C11.5077356,16.377323 11.7774012,15.7689708 12.3162698,15.5632523 L44.0891652,3.38694178 C44.6294215,3.18122329 45.2358221,3.45088131 45.4453564,3.99205066 C45.6488776,4.53461001 45.3810622,5.14110889 44.8384932,5.34868069 L13.06236,17.5240646 C12.9430225,17.5685442 12.8162843,17.5926374 12.6918589,17.5926374 Z"></path>
          <path d="M22.6264682,28.7913218 C22.5103686,28.7913218 22.3854806,28.7700086 22.2633679,28.7236756 L0.869590535,20.8035138 C0.552282499,20.6867546 0.312220006,20.4254366 0.222485664,20.100179 C0.134138966,19.7735314 0.203983737,19.4246439 0.416293341,19.1623992 L15.2363363,0.6486619 C15.6022119,0.198305209 16.2599554,0.125099081 16.7132526,0.486959755 C17.1628494,0.850210419 17.2340818,1.50999224 16.8728317,1.96405557 L2.95984566,19.3403179 L22.9932689,26.7554501 C23.5330626,26.9560719 23.8105915,27.5597908 23.6121583,28.1046668 C23.4562796,28.527687 23.0543252,28.7913218 22.6264682,28.7913218 Z"></path>
        </g>
        <path
          d="M102.76895,114.559251 C93.6812659,114.559251 86.2874336,107.150143 86.2874336,98.0438562 C86.2874336,88.9375698 93.6812659,81.5293875 102.76895,81.5293875 C111.860334,81.5293875 119.259254,88.9375698 119.259254,98.0438562 C119.259254,107.150143 111.860334,114.559251 102.76895,114.559251 Z M102.76895,83.6282721 C94.8330108,83.6282721 88.3818516,90.0954313 88.3818516,98.0438562 C88.3818516,105.992281 94.8330108,112.46083 102.76895,112.46083 C110.709051,112.46083 117.161135,105.992281 117.161135,98.0438562 C117.161135,90.0954313 110.709051,83.6282721 102.76895,83.6282721 Z"
        ></path>
        <path
          d="M111.261796,86.1779767 C111.036073,86.1779767 110.804336,86.1038439 110.614691,85.9518717 C110.159081,85.590011 110.084149,84.9302292 110.443549,84.4752392 L119.564073,72.9702938 C119.920698,72.5157671 120.583992,72.441171 121.035439,72.8016417 C121.487348,73.1621124 121.563206,73.8209675 121.201956,74.2773475 L112.085594,85.7813663 C111.879761,86.0417577 111.571241,86.1779767 111.261796,86.1779767 Z"
        ></path>
        <path
          d="M102.890137,129.242177 C102.321665,129.242177 101.85773,128.7946 101.838303,128.225168 L101.394719,113.541779 C101.373904,112.961227 101.831827,112.478437 102.410475,112.46083 C102.979871,112.44832 103.472948,112.898677 103.4896,113.477839 L103.931333,128.161228 C103.95261,128.741317 103.4933,129.22457 102.918353,129.242177 L102.890137,129.242177 Z"
        ></path>
        <path
          d="M131.814661,107.419801 C131.725852,107.419801 131.637043,107.407291 131.548233,107.385051 L117.363269,103.652928 C116.803123,103.504663 116.466851,102.93106 116.614866,102.370431 C116.762881,101.809339 117.332278,101.475278 117.894274,101.622153 L132.077388,105.353812 C132.64216,105.500225 132.973344,106.076607 132.825791,106.634456 C132.703679,107.10798 132.279059,107.419801 131.814661,107.419801 Z"
        ></path>
        <path
          d="M74.2454549,108.908016 C73.7967832,108.908016 73.3860404,108.620752 73.2449632,108.171322 C73.0715076,107.618569 73.3804898,107.029213 73.9327723,106.855928 L87.929017,102.468194 C88.481762,102.297225 89.0691982,102.603486 89.2394159,103.156239 C89.4156468,103.708991 89.1080522,104.298347 88.5580825,104.470242 L74.5553621,108.858903 C74.4508262,108.892263 74.3495282,108.908016 74.2454549,108.908016 Z"
        ></path>
        <path
          d="M93.9745214,86.0153479 C93.6775655,86.0153479 93.380147,85.8907122 93.173388,85.6465373 L83.659235,74.4663861 C83.2859586,74.0257593 83.3391516,73.3627342 83.7790349,72.9865103 C84.2198433,72.6126031 84.8775868,72.6640327 85.2587265,73.1055861 L94.7710293,84.2862006 C95.1466184,84.7259007 95.0929628,85.3893892 94.6521545,85.7637598 C94.4546464,85.9319485 94.2118086,86.0153479 93.9745214,86.0153479 Z"
        ></path>
        <g transform="translate(80.483379, 119.075792)">
          <path d="M31.7113765,27.1928335 C29.7404588,27.1928335 27.8361481,26.8439461 26.0900288,26.5265651 C24.5719457,26.2499571 23.1602488,25.991419 21.8961047,25.9979056 C20.7087435,26.0076355 19.334513,26.2499571 17.8774863,26.5075685 C13.9213119,27.2062701 8.99563656,28.078257 4.65600975,24.6134758 C0.42415666,21.2325573 -0.852476253,15.9635694 0.959324878,9.37316445 C2.27943732,4.56611645 4.76100818,0.772834321 4.86508151,0.615302145 C5.18238955,0.13204903 5.83041952,0.000463329929 6.31563254,0.319234321 C6.79853281,0.638005312 6.93035904,1.28898386 6.61073826,1.77223698 C6.51915372,1.91540592 -2.65733916,16.0858885 5.96363339,22.9723612 C9.5608704,25.8463967 13.6053915,25.131942 17.514386,24.4401904 C19.0592968,24.1672891 20.5153984,23.908751 21.880378,23.8999477 C23.3286163,23.8777079 24.8462368,24.1654358 26.4596048,24.4605769 C31.1863844,25.3205173 36.0695053,26.2128907 40.5520595,20.6107685 C45.1474754,14.8752074 38.2050901,1.89548274 38.1329326,1.76575036 C37.8586416,1.25516078 38.0473612,0.618545455 38.5510761,0.343327477 C39.0621919,0.0657928498 39.6972705,0.253441471 39.9738743,0.762641062 C40.2921074,1.34551011 47.6540239,15.102239 42.1885548,21.9238456 C38.8295301,26.1183714 35.1707742,27.1928335 31.7113765,27.1928335 Z"></path>
          <path d="M30.3413089,21.720907 C29.6595129,21.720907 28.9314621,21.6546509 28.1918476,21.4869254 L27.6742562,21.3678496 C24.8309727,20.7168711 21.8951796,20.0431894 18.1073727,21.230704 C13.3768927,22.7179931 9.83007343,20.2609544 9.68390821,20.1553152 C9.20887126,19.819401 9.09647205,19.1651792 9.43274456,18.6925826 C9.76439159,18.2199861 10.4175096,18.1078603 10.8902338,18.4400678 C11.0178971,18.5281005 13.7751467,20.3939301 17.481545,19.2286554 C21.8072954,17.870172 25.1723333,18.641153 28.1391171,19.322248 L28.6567085,19.4390072 C31.3334747,20.0450427 33.8645382,18.9344409 33.8927537,18.9242476 C34.4172833,18.6893393 35.038948,18.9233209 35.2739225,19.4505904 C35.5139849,19.9797132 35.2813232,20.5991853 34.7521681,20.8382635 C34.6531828,20.8827432 32.7692242,21.720907 30.3413089,21.720907 Z"></path>
        </g>
        <g transform="translate(51.696181, 86.533299)">
          <path d="M19.0325204,44.2466697 C18.159692,44.2466697 17.2938019,44.1238872 16.4478013,43.8519126 C8.43507958,41.2651416 7.3152505,35.2543624 6.41605688,30.4236846 C6.13112721,28.9058157 5.86839986,27.4713463 5.41417757,26.3125581 C4.98215759,25.2038096 4.26289521,24.0056384 3.50801662,22.7347244 C1.44135145,19.2805998 -1.12625337,14.9795081 0.562509953,9.68503698 C2.19808024,4.53280817 6.97851544,1.31266517 14.3718852,0.373958733 C19.7827735,-0.312232891 24.647855,0.444848212 24.8532264,0.475427988 C25.4253985,0.568093973 25.8125513,1.10509336 25.7242046,1.67637916 C25.6349328,2.24859162 25.0997646,2.6414954 24.5252798,2.55068274 C24.3393354,2.51963963 5.92483074,-0.258486619 2.55562996,10.322579 C1.15827198,14.7135567 3.26471629,18.2427408 5.30547875,21.6574823 C6.10846236,23.0043824 6.87120427,24.2771497 7.3652057,25.5476004 C7.88973531,26.8898672 8.17373988,28.4197826 8.47624637,30.0363408 C9.35693806,34.763696 10.2695456,39.6513634 17.0875054,41.8531073 C20.6620776,43.0054088 24.9679384,40.5571734 27.9569245,38.3007567 C31.3177995,35.7626353 33.7813309,32.8987931 33.8049209,32.8696033 C34.18051,32.4303665 34.8438041,32.3789369 35.2818372,32.7565508 C35.7184826,33.133238 35.774451,33.7948731 35.3974742,34.2364266 C35.0084712,34.6900266 26.73626,44.2466697 19.0325204,44.2466697 Z"></path>
          <path d="M15.5481451,36.809761 C15.2817174,36.809761 15.0176024,36.7078284 14.8089932,36.5039632 C14.7076951,36.4071273 12.3551752,34.0358047 11.8653367,30.5974333 L11.7904039,30.0710905 C11.3856743,27.1771318 10.9670682,24.1858737 8.51140003,21.0681267 C5.43360459,17.1678153 6.46508698,12.9737528 6.50902906,12.7981508 C6.65334408,12.2375216 7.22505361,11.8992907 7.78473688,12.042923 C8.34349505,12.1851653 8.68485559,12.7550611 8.53822782,13.3147636 C8.50492436,13.4602492 7.74588283,16.709582 10.1515958,19.7684862 C12.963426,23.3314934 13.4421634,26.7568915 13.8644699,29.7787293 L13.9403277,30.3013655 C14.332106,33.047522 16.2660199,34.993971 16.2872971,35.0143575 C16.6971148,35.4220878 16.698965,36.0860396 16.2909975,36.4979399 C16.0874763,36.7059751 15.8178107,36.809761 15.5481451,36.809761 Z"></path>
        </g>
        <g transform="translate(118.412328, 87.106027)">
          <path d="M16.6323066,43.6739424 C8.93041727,43.6757957 0.655893287,34.1172993 0.270590672,33.6641626 C-0.108698817,33.2226092 -0.0550432307,32.5609741 0.38391497,32.1842868 C0.822873171,31.8071363 1.48524213,31.8599559 1.86175633,32.2973393 C1.9575038,32.4108552 11.5872939,43.5335534 18.5782467,41.2808433 C25.4017571,39.0790995 26.3106643,34.1914321 27.1895058,29.4640768 C27.4906246,27.847982 27.7774045,26.3180666 28.3019341,24.9753365 C28.7945479,23.7048858 29.5586774,22.4321185 30.3598108,21.0852184 C32.3982606,17.6704768 34.5088678,14.1412927 33.1105847,9.75031502 C29.7575731,-0.774224311 13.2709692,2.7619097 13.1044518,2.79804944 C12.539218,2.92453851 11.9818475,2.56870112 11.8541842,2.00158529 C11.7288336,1.43539612 12.0845331,0.875693565 12.649767,0.750131154 C12.837099,0.707504801 17.255359,-0.26131808 22.2124876,0.216838407 C29.0040822,0.870596936 33.4621213,3.94710766 35.1050924,9.11277303 C36.7910804,14.4072441 34.2216254,18.7083359 32.1568104,22.1624605 C31.3991565,23.4333745 30.6808193,24.6315457 30.2524997,25.7402942 C29.7992025,26.8990823 29.5327747,28.3335518 29.2506204,29.8514206 C28.3481889,34.6825618 27.2311351,40.6928776 19.2207261,43.2796486 C18.3710252,43.55116 17.5074477,43.6739424 16.6323066,43.6739424 Z"></path>
          <path d="M20.1185321,36.2370337 C19.8488665,36.2370337 19.5773507,36.1332478 19.3729045,35.9252127 C18.9672497,35.5133124 18.9709501,34.8493606 19.3816929,34.4416302 C19.3941817,34.4240237 21.337809,32.4497749 21.7258869,29.7286382 L21.8017448,29.2041487 C22.2222011,26.1827743 22.7018635,22.7587661 25.5095309,19.1952956 C27.9499349,16.1002517 27.1372378,12.7786394 27.1279869,12.7480597 C26.9869097,12.1855771 27.321332,11.612438 27.8791651,11.4701957 C28.4443989,11.3247101 29.0133331,11.6643309 29.1571856,12.2254235 C29.2029779,12.4010255 30.2307599,16.595088 27.1557397,20.4953994 C24.6986839,23.6131465 24.2786902,26.6034778 23.8758108,29.4955832 L23.7981027,30.024706 C23.3087267,33.4630774 20.9548192,35.8344 20.8562964,35.931236 C20.6504625,36.1351011 20.3844973,36.2370337 20.1185321,36.2370337 Z"></path>
        </g>
        <g transform="translate(103.148239, 50.039632)">
          <path d="M28.1257032,39.8352539 C27.7043219,39.8352539 27.3083806,39.5781058 27.1474139,39.1611089 C26.9420425,38.6180862 27.210783,38.0120507 27.7505767,37.8054055 C27.7926686,37.789189 31.8741935,36.2027473 35.4857695,33.2652355 C40.1255901,29.48817 41.8458067,25.3460004 40.6061776,20.9503894 C39.3522096,16.5153953 35.649049,14.7375984 32.0670761,13.016791 C30.654454,12.338476 29.3163022,11.698154 28.2052615,10.9123465 C27.0280765,10.0815959 25.9471014,8.96404413 24.8059951,7.77977283 C21.4691727,4.32564821 18.0181009,0.752447804 11.1113318,2.68916691 C7.49975582,3.70107947 5.25547216,8.12588029 4.00936742,11.657381 C2.60414612,15.6327518 2.12725897,19.3797009 2.12448368,19.4186206 C2.05140108,19.9936131 1.52409618,20.3981001 0.952849203,20.3309173 C0.381602229,20.2586378 -0.0305281784,19.7346116 0.0444046231,19.1586925 C0.125813099,18.500764 2.14021032,3.0250811 10.5470231,0.666268437 C18.6517919,-1.60590153 22.8993716,2.78878284 26.3083515,6.32121021 C27.3823883,7.43042206 28.397219,8.47801103 29.4120497,9.19524576 C30.3838633,9.87958407 31.6387565,10.4837663 32.9722828,11.1250149 C36.5986604,12.8648188 41.1080424,15.0304229 42.6182621,20.3786402 C44.0956409,25.5957352 42.0706051,30.6251816 36.7688781,34.92442 C32.8996628,38.061627 28.6761355,39.6971816 28.5008298,39.7657544 C28.3764043,39.8120874 28.248741,39.8352539 28.1257032,39.8352539 Z"></path>
          <path d="M34.9510638,22.4631616 C34.5213566,22.4631616 34.1147768,22.1911869 33.963061,21.7612168 L33.963061,21.7612168 C33.9163436,21.6287044 32.7595107,18.4924241 29.064676,17.2729397 C24.7574276,15.8546868 22.4733648,13.2623559 20.4524919,10.9767493 L20.1051182,10.5810656 C18.2646391,8.50720082 15.5786219,7.95213156 15.5504065,7.94749826 C14.9842475,7.83444576 14.6151341,7.2807665 14.728921,6.712724 C14.8403951,6.14560817 15.3899023,5.77401757 15.9611493,5.88892339 C16.0999137,5.91625986 19.3645786,6.59272155 21.6713063,9.18644249 L22.0256181,9.58768621 C23.9539814,11.7750668 25.952652,14.0370435 29.7182565,15.2778411 C34.4316223,16.8341663 35.8840235,20.8984964 35.9427671,21.0713185 C36.134262,21.6180478 35.8423941,22.2148168 35.2970499,22.4057087 C35.1823379,22.4437017 35.067626,22.4631616 34.9510638,22.4631616 Z"></path>
        </g>
        <g transform="translate(61.981453, 49.576302)">
          <path d="M14.4032871,39.5211162 C14.2677604,39.5211162 14.1280709,39.4937798 13.9934694,39.4354002 C13.8172385,39.3612674 9.65985571,37.5700339 5.9099778,34.2905847 C0.769680133,29.7953577 -1.06386076,24.6959485 0.601312604,19.5367698 C2.30719021,14.2501753 6.89705557,12.25137 10.5863397,10.6477851 C11.9406807,10.0588927 13.2187012,9.50150684 14.2141049,8.85238161 C15.2590012,8.17360327 16.3080604,7.16308069 17.4218763,6.09510521 C20.9599072,2.69241021 25.3675286,-1.53918202 33.3830256,1.03090909 C41.6973287,3.7015428 43.1377037,19.2416286 43.1941345,19.9023371 C43.2431646,20.4810362 42.8171578,20.9879191 42.2403602,21.0370321 C41.6478361,21.0847551 41.1570725,20.6608082 41.1048045,20.0839624 C41.0955536,19.9356968 39.7375122,5.27501124 32.7423964,3.03110439 C25.9174983,0.839090501 22.335988,4.28163187 18.8728899,7.61019408 C17.6859913,8.74952237 16.5675499,9.82491113 15.3552112,10.611182 C14.2159551,11.3552899 12.8583762,11.9474255 11.4212391,12.5733843 C7.77867236,14.1565826 4.014918,15.7967706 2.59397006,20.1826517 C1.18504838,24.5402697 2.76696307,28.7547187 7.28975895,32.7078496 C10.7898609,35.7704605 14.7742507,37.4857079 14.81588,37.5042411 C15.3464228,37.7294194 15.5952737,38.3465749 15.3704753,38.8794043 C15.1984073,39.2801847 14.8112545,39.5211162 14.4032871,39.5211162 Z"></path>
          <path d="M8.22364368,21.9057757 C8.09644294,21.9057757 7.97155494,21.8835359 7.84435419,21.8348862 C7.30641069,21.6245344 7.03674511,21.0171089 7.24812962,20.4764029 C7.3151991,20.3058974 8.91469063,16.2971669 13.6844872,14.9215403 C17.4940338,13.8202051 19.575038,11.6342145 21.582497,9.51911338 L21.9534606,9.13315955 C24.3471473,6.62469132 27.6391026,6.07054872 27.7824925,6.04830889 C28.3505016,5.95749622 28.8870575,6.34530337 28.978642,6.91797916 C29.0693015,7.48926496 28.684924,8.02904433 28.113677,8.119857 C28.0905496,8.1244903 25.3647533,8.59847681 23.4636804,10.5847722 L23.099655,10.9665561 C20.9987612,13.1752498 18.6166382,15.6781581 14.2645226,16.9374889 C10.479491,18.0300208 9.21442183,21.2038308 9.20193303,21.2358006 C9.04327902,21.6509442 8.64502505,21.9057757 8.22364368,21.9057757 Z"></path>
        </g>
      </g>
    </g>
  </g>
</svg>
